<svg width="336" height="146" viewBox="0 0 336 146" fill="none" xmlns="http://www.w3.org/2000/svg">
<path d="M29.886 109.632H35.646V110.992H29.886V109.632ZM30.03 114.608H36.558V116H28.43V104.8H36.334V106.192H30.03V114.608ZM43.4528 107.44C44.1461 107.44 44.7541 107.573 45.2768 107.84C45.8101 108.107 46.2261 108.512 46.5248 109.056C46.8234 109.6 46.9728 110.288 46.9728 111.12V116H45.4368V111.296C45.4368 110.475 45.2341 109.856 44.8288 109.44C44.4341 109.024 43.8741 108.816 43.1488 108.816C42.6048 108.816 42.1301 108.923 41.7248 109.136C41.3194 109.349 41.0048 109.664 40.7808 110.08C40.5674 110.496 40.4608 111.013 40.4608 111.632V116H38.9248V107.52H40.3968V109.808L40.1568 109.2C40.4341 108.645 40.8608 108.213 41.4368 107.904C42.0128 107.595 42.6848 107.44 43.4528 107.44ZM51.8831 116L48.1711 107.52H49.7711L53.0671 115.2H52.2991L55.6591 107.52H57.1631L53.4511 116H51.8831ZM58.5966 116V107.52H60.1326V116H58.5966ZM59.3646 105.888C59.066 105.888 58.8153 105.792 58.6126 105.6C58.4206 105.408 58.3246 105.173 58.3246 104.896C58.3246 104.608 58.4206 104.368 58.6126 104.176C58.8153 103.984 59.066 103.888 59.3646 103.888C59.6633 103.888 59.9086 103.984 60.1006 104.176C60.3033 104.357 60.4046 104.587 60.4046 104.864C60.4046 105.152 60.3086 105.397 60.1166 105.6C59.9246 105.792 59.674 105.888 59.3646 105.888ZM66.8414 116.096C65.9347 116.096 65.1347 115.909 64.4414 115.536C63.7587 115.163 63.2254 114.651 62.8414 114C62.468 113.349 62.2814 112.603 62.2814 111.76C62.2814 110.917 62.4627 110.171 62.8254 109.52C63.1987 108.869 63.7054 108.363 64.3454 108C64.996 107.627 65.7267 107.44 66.5374 107.44C67.3587 107.44 68.084 107.621 68.7134 107.984C69.3427 108.347 69.8334 108.859 70.1854 109.52C70.548 110.171 70.7294 110.933 70.7294 111.808C70.7294 111.872 70.724 111.947 70.7134 112.032C70.7134 112.117 70.708 112.197 70.6974 112.272H63.4814V111.168H69.8974L69.2734 111.552C69.284 111.008 69.172 110.523 68.9374 110.096C68.7027 109.669 68.3774 109.339 67.9614 109.104C67.556 108.859 67.0814 108.736 66.5374 108.736C66.004 108.736 65.5294 108.859 65.1134 109.104C64.6974 109.339 64.372 109.675 64.1374 110.112C63.9027 110.539 63.7854 111.029 63.7854 111.584V111.84C63.7854 112.405 63.9134 112.912 64.1694 113.36C64.436 113.797 64.804 114.139 65.2734 114.384C65.7427 114.629 66.2814 114.752 66.8894 114.752C67.3907 114.752 67.844 114.667 68.2494 114.496C68.6654 114.325 69.028 114.069 69.3374 113.728L70.1854 114.72C69.8014 115.168 69.3214 115.509 68.7454 115.744C68.18 115.979 67.5454 116.096 66.8414 116.096ZM80.9351 116.096C80.0285 116.096 79.2285 115.909 78.5351 115.536C77.8525 115.163 77.3191 114.651 76.9351 114C76.5618 113.349 76.3751 112.603 76.3751 111.76C76.3751 110.917 76.5565 110.171 76.9191 109.52C77.2925 108.869 77.7991 108.363 78.4391 108C79.0898 107.627 79.8205 107.44 80.6311 107.44C81.4525 107.44 82.1778 107.621 82.8071 107.984C83.4365 108.347 83.9271 108.859 84.2791 109.52C84.6418 110.171 84.8231 110.933 84.8231 111.808C84.8231 111.872 84.8178 111.947 84.8071 112.032C84.8071 112.117 84.8018 112.197 84.7911 112.272H77.5751V111.168H83.9911L83.3671 111.552C83.3778 111.008 83.2658 110.523 83.0311 110.096C82.7965 109.669 82.4711 109.339 82.0551 109.104C81.6498 108.859 81.1751 108.736 80.6311 108.736C80.0978 108.736 79.6231 108.859 79.2071 109.104C78.7911 109.339 78.4658 109.675 78.2311 110.112C77.9965 110.539 77.8791 111.029 77.8791 111.584V111.84C77.8791 112.405 78.0071 112.912 78.2631 113.36C78.5298 113.797 78.8978 114.139 79.3671 114.384C79.8365 114.629 80.3751 114.752 80.9831 114.752C81.4845 114.752 81.9378 114.667 82.3431 114.496C82.7591 114.325 83.1218 114.069 83.4311 113.728L84.2791 114.72C83.8951 115.168 83.4151 115.509 82.8391 115.744C82.2738 115.979 81.6391 116.096 80.9351 116.096ZM91.2529 116V107.52H92.7249V109.824L92.5809 109.248C92.8155 108.661 93.2102 108.213 93.7649 107.904C94.3195 107.595 95.0022 107.44 95.8129 107.44V108.928C95.7489 108.917 95.6849 108.912 95.6209 108.912C95.5675 108.912 95.5142 108.912 95.4609 108.912C94.6395 108.912 93.9889 109.157 93.5089 109.648C93.0289 110.139 92.7889 110.848 92.7889 111.776V116H91.2529ZM101.404 116.096C100.497 116.096 99.6972 115.909 99.0039 115.536C98.3212 115.163 97.7879 114.651 97.4039 114C97.0305 113.349 96.8439 112.603 96.8439 111.76C96.8439 110.917 97.0252 110.171 97.3879 109.52C97.7612 108.869 98.2679 108.363 98.9079 108C99.5585 107.627 100.289 107.44 101.1 107.44C101.921 107.44 102.647 107.621 103.276 107.984C103.905 108.347 104.396 108.859 104.748 109.52C105.111 110.171 105.292 110.933 105.292 111.808C105.292 111.872 105.287 111.947 105.276 112.032C105.276 112.117 105.271 112.197 105.26 112.272H98.0439V111.168H104.46L103.836 111.552C103.847 111.008 103.735 110.523 103.5 110.096C103.265 109.669 102.94 109.339 102.524 109.104C102.119 108.859 101.644 108.736 101.1 108.736C100.567 108.736 100.092 108.859 99.6759 109.104C99.2599 109.339 98.9345 109.675 98.6999 110.112C98.4652 110.539 98.3479 111.029 98.3479 111.584V111.84C98.3479 112.405 98.4759 112.912 98.7319 113.36C98.9985 113.797 99.3665 114.139 99.8359 114.384C100.305 114.629 100.844 114.752 101.452 114.752C101.953 114.752 102.407 114.667 102.812 114.496C103.228 114.325 103.591 114.069 103.9 113.728L104.748 114.72C104.364 115.168 103.884 115.509 103.308 115.744C102.743 115.979 102.108 116.096 101.404 116.096ZM111.121 116.096C110.257 116.096 109.483 115.909 108.801 115.536C108.129 115.163 107.601 114.651 107.217 114C106.833 113.349 106.641 112.603 106.641 111.76C106.641 110.917 106.833 110.171 107.217 109.52C107.601 108.869 108.129 108.363 108.801 108C109.483 107.627 110.257 107.44 111.121 107.44C111.889 107.44 112.571 107.595 113.169 107.904C113.777 108.203 114.246 108.651 114.577 109.248L113.409 110C113.131 109.584 112.79 109.28 112.385 109.088C111.99 108.885 111.563 108.784 111.105 108.784C110.55 108.784 110.054 108.907 109.617 109.152C109.179 109.397 108.833 109.744 108.577 110.192C108.321 110.629 108.193 111.152 108.193 111.76C108.193 112.368 108.321 112.896 108.577 113.344C108.833 113.792 109.179 114.139 109.617 114.384C110.054 114.629 110.55 114.752 111.105 114.752C111.563 114.752 111.99 114.656 112.385 114.464C112.79 114.261 113.131 113.952 113.409 113.536L114.577 114.272C114.246 114.859 113.777 115.312 113.169 115.632C112.571 115.941 111.889 116.096 111.121 116.096ZM120.216 116.096C119.31 116.096 118.51 115.909 117.816 115.536C117.134 115.163 116.6 114.651 116.216 114C115.843 113.349 115.656 112.603 115.656 111.76C115.656 110.917 115.838 110.171 116.2 109.52C116.574 108.869 117.08 108.363 117.72 108C118.371 107.627 119.102 107.44 119.912 107.44C120.734 107.44 121.459 107.621 122.088 107.984C122.718 108.347 123.208 108.859 123.56 109.52C123.923 110.171 124.104 110.933 124.104 111.808C124.104 111.872 124.099 111.947 124.088 112.032C124.088 112.117 124.083 112.197 124.072 112.272H116.856V111.168H123.272L122.648 111.552C122.659 111.008 122.547 110.523 122.312 110.096C122.078 109.669 121.752 109.339 121.336 109.104C120.931 108.859 120.456 108.736 119.912 108.736C119.379 108.736 118.904 108.859 118.488 109.104C118.072 109.339 117.747 109.675 117.512 110.112C117.278 110.539 117.16 111.029 117.16 111.584V111.84C117.16 112.405 117.288 112.912 117.544 113.36C117.811 113.797 118.179 114.139 118.648 114.384C119.118 114.629 119.656 114.752 120.264 114.752C120.766 114.752 121.219 114.667 121.624 114.496C122.04 114.325 122.403 114.069 122.712 113.728L123.56 114.72C123.176 115.168 122.696 115.509 122.12 115.744C121.555 115.979 120.92 116.096 120.216 116.096ZM130.733 116.096C130.008 116.096 129.352 115.936 128.765 115.616C128.189 115.285 127.731 114.8 127.389 114.16C127.059 113.52 126.893 112.72 126.893 111.76C126.893 110.8 127.064 110 127.405 109.36C127.757 108.72 128.221 108.24 128.797 107.92C129.384 107.6 130.029 107.44 130.733 107.44C131.565 107.44 132.301 107.621 132.941 107.984C133.581 108.347 134.088 108.853 134.461 109.504C134.835 110.144 135.021 110.896 135.021 111.76C135.021 112.624 134.835 113.381 134.461 114.032C134.088 114.683 133.581 115.189 132.941 115.552C132.301 115.915 131.565 116.096 130.733 116.096ZM126.237 116V104.128H127.773V109.776L127.613 111.744L127.709 113.712V116H126.237ZM130.605 114.752C131.149 114.752 131.635 114.629 132.061 114.384C132.499 114.139 132.84 113.792 133.085 113.344C133.341 112.885 133.469 112.357 133.469 111.76C133.469 111.152 133.341 110.629 133.085 110.192C132.84 109.744 132.499 109.397 132.061 109.152C131.635 108.907 131.149 108.784 130.605 108.784C130.072 108.784 129.587 108.907 129.149 109.152C128.723 109.397 128.381 109.744 128.125 110.192C127.88 110.629 127.757 111.152 127.757 111.76C127.757 112.357 127.88 112.885 128.125 113.344C128.381 113.792 128.723 114.139 129.149 114.384C129.587 114.629 130.072 114.752 130.605 114.752ZM142.329 116V114.208L142.249 113.872V110.816C142.249 110.165 142.057 109.664 141.673 109.312C141.3 108.949 140.735 108.768 139.977 108.768C139.476 108.768 138.985 108.853 138.505 109.024C138.025 109.184 137.62 109.403 137.289 109.68L136.649 108.528C137.087 108.176 137.609 107.909 138.217 107.728C138.836 107.536 139.481 107.44 140.153 107.44C141.316 107.44 142.212 107.723 142.841 108.288C143.471 108.853 143.785 109.717 143.785 110.88V116H142.329ZM139.545 116.096C138.916 116.096 138.361 115.989 137.881 115.776C137.412 115.563 137.049 115.269 136.793 114.896C136.537 114.512 136.409 114.08 136.409 113.6C136.409 113.141 136.516 112.725 136.729 112.352C136.953 111.979 137.311 111.68 137.801 111.456C138.303 111.232 138.975 111.12 139.817 111.12H142.505V112.224H139.881C139.113 112.224 138.596 112.352 138.329 112.608C138.063 112.864 137.929 113.173 137.929 113.536C137.929 113.952 138.095 114.288 138.425 114.544C138.756 114.789 139.215 114.912 139.801 114.912C140.377 114.912 140.879 114.784 141.305 114.528C141.743 114.272 142.057 113.899 142.249 113.408L142.553 114.464C142.351 114.965 141.993 115.365 141.481 115.664C140.969 115.952 140.324 116.096 139.545 116.096ZM154.429 116.096C153.607 116.096 152.871 115.915 152.221 115.552C151.581 115.189 151.074 114.683 150.701 114.032C150.327 113.381 150.141 112.624 150.141 111.76C150.141 110.896 150.327 110.144 150.701 109.504C151.074 108.853 151.581 108.347 152.221 107.984C152.871 107.621 153.607 107.44 154.429 107.44C155.143 107.44 155.789 107.6 156.365 107.92C156.941 108.24 157.399 108.72 157.741 109.36C158.093 110 158.269 110.8 158.269 111.76C158.269 112.72 158.098 113.52 157.757 114.16C157.426 114.8 156.973 115.285 156.397 115.616C155.821 115.936 155.165 116.096 154.429 116.096ZM154.557 114.752C155.09 114.752 155.57 114.629 155.997 114.384C156.434 114.139 156.775 113.792 157.021 113.344C157.277 112.885 157.405 112.357 157.405 111.76C157.405 111.152 157.277 110.629 157.021 110.192C156.775 109.744 156.434 109.397 155.997 109.152C155.57 108.907 155.09 108.784 154.557 108.784C154.013 108.784 153.527 108.907 153.101 109.152C152.674 109.397 152.333 109.744 152.077 110.192C151.821 110.629 151.693 111.152 151.693 111.76C151.693 112.357 151.821 112.885 152.077 113.344C152.333 113.792 152.674 114.139 153.101 114.384C153.527 114.629 154.013 114.752 154.557 114.752ZM157.453 116V113.712L157.549 111.744L157.389 109.776V104.128H158.925V116H157.453ZM161.831 116V107.52H163.367V116H161.831ZM162.599 105.888C162.3 105.888 162.05 105.792 161.847 105.6C161.655 105.408 161.559 105.173 161.559 104.896C161.559 104.608 161.655 104.368 161.847 104.176C162.05 103.984 162.3 103.888 162.599 103.888C162.898 103.888 163.143 103.984 163.335 104.176C163.538 104.357 163.639 104.587 163.639 104.864C163.639 105.152 163.543 105.397 163.351 105.6C163.159 105.792 162.908 105.888 162.599 105.888ZM170.828 107.44C171.521 107.44 172.129 107.573 172.652 107.84C173.185 108.107 173.601 108.512 173.9 109.056C174.198 109.6 174.348 110.288 174.348 111.12V116H172.812V111.296C172.812 110.475 172.609 109.856 172.204 109.44C171.809 109.024 171.249 108.816 170.524 108.816C169.98 108.816 169.505 108.923 169.1 109.136C168.694 109.349 168.38 109.664 168.156 110.08C167.942 110.496 167.836 111.013 167.836 111.632V116H166.3V107.52H167.772V109.808L167.532 109.2C167.809 108.645 168.236 108.213 168.812 107.904C169.388 107.595 170.06 107.44 170.828 107.44ZM181.718 107.44C182.412 107.44 183.02 107.573 183.542 107.84C184.076 108.107 184.492 108.512 184.79 109.056C185.089 109.6 185.238 110.288 185.238 111.12V116H183.702V111.296C183.702 110.475 183.5 109.856 183.094 109.44C182.7 109.024 182.14 108.816 181.414 108.816C180.87 108.816 180.396 108.923 179.99 109.136C179.585 109.349 179.27 109.664 179.046 110.08C178.833 110.496 178.726 111.013 178.726 111.632V116H177.19V104.128H178.726V109.808L178.422 109.2C178.7 108.645 179.126 108.213 179.702 107.904C180.278 107.595 180.95 107.44 181.718 107.44ZM191.857 116.096C190.95 116.096 190.15 115.909 189.457 115.536C188.774 115.163 188.241 114.651 187.857 114C187.484 113.349 187.297 112.603 187.297 111.76C187.297 110.917 187.478 110.171 187.841 109.52C188.214 108.869 188.721 108.363 189.361 108C190.012 107.627 190.742 107.44 191.553 107.44C192.374 107.44 193.1 107.621 193.729 107.984C194.358 108.347 194.849 108.859 195.201 109.52C195.564 110.171 195.745 110.933 195.745 111.808C195.745 111.872 195.74 111.947 195.729 112.032C195.729 112.117 195.724 112.197 195.713 112.272H188.497V111.168H194.913L194.289 111.552C194.3 111.008 194.188 110.523 193.953 110.096C193.718 109.669 193.393 109.339 192.977 109.104C192.572 108.859 192.097 108.736 191.553 108.736C191.02 108.736 190.545 108.859 190.129 109.104C189.713 109.339 189.388 109.675 189.153 110.112C188.918 110.539 188.801 111.029 188.801 111.584V111.84C188.801 112.405 188.929 112.912 189.185 113.36C189.452 113.797 189.82 114.139 190.289 114.384C190.758 114.629 191.297 114.752 191.905 114.752C192.406 114.752 192.86 114.667 193.265 114.496C193.681 114.325 194.044 114.069 194.353 113.728L195.201 114.72C194.817 115.168 194.337 115.509 193.761 115.744C193.196 115.979 192.561 116.096 191.857 116.096ZM197.878 116V107.52H199.414V116H197.878ZM198.646 105.888C198.347 105.888 198.097 105.792 197.894 105.6C197.702 105.408 197.606 105.173 197.606 104.896C197.606 104.608 197.702 104.368 197.894 104.176C198.097 103.984 198.347 103.888 198.646 103.888C198.945 103.888 199.19 103.984 199.382 104.176C199.585 104.357 199.686 104.587 199.686 104.864C199.686 105.152 199.59 105.397 199.398 105.6C199.206 105.792 198.955 105.888 198.646 105.888ZM202.347 116V107.52H203.819V109.824L203.675 109.248C203.909 108.661 204.304 108.213 204.859 107.904C205.413 107.595 206.096 107.44 206.907 107.44V108.928C206.843 108.917 206.779 108.912 206.715 108.912C206.661 108.912 206.608 108.912 206.555 108.912C205.733 108.912 205.083 109.157 204.603 109.648C204.123 110.139 203.883 110.848 203.883 111.776V116H202.347ZM212.354 116.096C211.5 116.096 210.743 115.909 210.082 115.536C209.42 115.163 208.898 114.651 208.514 114C208.13 113.339 207.938 112.592 207.938 111.76C207.938 110.917 208.13 110.171 208.514 109.52C208.898 108.869 209.42 108.363 210.082 108C210.743 107.627 211.5 107.44 212.354 107.44C213.196 107.44 213.948 107.627 214.61 108C215.282 108.363 215.804 108.869 216.178 109.52C216.562 110.16 216.754 110.907 216.754 111.76C216.754 112.603 216.562 113.349 216.178 114C215.804 114.651 215.282 115.163 214.61 115.536C213.948 115.909 213.196 116.096 212.354 116.096ZM212.354 114.752C212.898 114.752 213.383 114.629 213.81 114.384C214.247 114.139 214.588 113.792 214.834 113.344C215.079 112.885 215.202 112.357 215.202 111.76C215.202 111.152 215.079 110.629 214.834 110.192C214.588 109.744 214.247 109.397 213.81 109.152C213.383 108.907 212.898 108.784 212.354 108.784C211.81 108.784 211.324 108.907 210.898 109.152C210.471 109.397 210.13 109.744 209.874 110.192C209.618 110.629 209.49 111.152 209.49 111.76C209.49 112.357 209.618 112.885 209.874 113.344C210.13 113.792 210.471 114.139 210.898 114.384C211.324 114.629 211.81 114.752 212.354 114.752ZM226.679 116.096C225.857 116.096 225.121 115.915 224.471 115.552C223.831 115.189 223.324 114.683 222.951 114.032C222.577 113.381 222.391 112.624 222.391 111.76C222.391 110.896 222.577 110.144 222.951 109.504C223.324 108.853 223.831 108.347 224.471 107.984C225.121 107.621 225.857 107.44 226.679 107.44C227.393 107.44 228.039 107.6 228.615 107.92C229.191 108.24 229.649 108.72 229.991 109.36C230.343 110 230.519 110.8 230.519 111.76C230.519 112.72 230.348 113.52 230.007 114.16C229.676 114.8 229.223 115.285 228.647 115.616C228.071 115.936 227.415 116.096 226.679 116.096ZM226.807 114.752C227.34 114.752 227.82 114.629 228.247 114.384C228.684 114.139 229.025 113.792 229.271 113.344C229.527 112.885 229.655 112.357 229.655 111.76C229.655 111.152 229.527 110.629 229.271 110.192C229.025 109.744 228.684 109.397 228.247 109.152C227.82 108.907 227.34 108.784 226.807 108.784C226.263 108.784 225.777 108.907 225.351 109.152C224.924 109.397 224.583 109.744 224.327 110.192C224.071 110.629 223.943 111.152 223.943 111.76C223.943 112.357 224.071 112.885 224.327 113.344C224.583 113.792 224.924 114.139 225.351 114.384C225.777 114.629 226.263 114.752 226.807 114.752ZM229.703 116V113.712L229.799 111.744L229.639 109.776V104.128H231.175V116H229.703ZM237.713 116.096C236.86 116.096 236.102 115.909 235.441 115.536C234.78 115.163 234.257 114.651 233.873 114C233.489 113.339 233.297 112.592 233.297 111.76C233.297 110.917 233.489 110.171 233.873 109.52C234.257 108.869 234.78 108.363 235.441 108C236.102 107.627 236.86 107.44 237.713 107.44C238.556 107.44 239.308 107.627 239.969 108C240.641 108.363 241.164 108.869 241.537 109.52C241.921 110.16 242.113 110.907 242.113 111.76C242.113 112.603 241.921 113.349 241.537 114C241.164 114.651 240.641 115.163 239.969 115.536C239.308 115.909 238.556 116.096 237.713 116.096ZM237.713 114.752C238.257 114.752 238.742 114.629 239.169 114.384C239.606 114.139 239.948 113.792 240.193 113.344C240.438 112.885 240.561 112.357 240.561 111.76C240.561 111.152 240.438 110.629 240.193 110.192C239.948 109.744 239.606 109.397 239.169 109.152C238.742 108.907 238.257 108.784 237.713 108.784C237.169 108.784 236.684 108.907 236.257 109.152C235.83 109.397 235.489 109.744 235.233 110.192C234.977 110.629 234.849 111.152 234.849 111.76C234.849 112.357 234.977 112.885 235.233 113.344C235.489 113.792 235.83 114.139 236.257 114.384C236.684 114.629 237.169 114.752 237.713 114.752ZM252.31 116.096C251.403 116.096 250.603 115.909 249.91 115.536C249.227 115.163 248.694 114.651 248.31 114C247.937 113.349 247.75 112.603 247.75 111.76C247.75 110.917 247.931 110.171 248.294 109.52C248.667 108.869 249.174 108.363 249.814 108C250.465 107.627 251.195 107.44 252.006 107.44C252.827 107.44 253.553 107.621 254.182 107.984C254.811 108.347 255.302 108.859 255.654 109.52C256.017 110.171 256.198 110.933 256.198 111.808C256.198 111.872 256.193 111.947 256.182 112.032C256.182 112.117 256.177 112.197 256.166 112.272H248.95V111.168H255.366L254.742 111.552C254.753 111.008 254.641 110.523 254.406 110.096C254.171 109.669 253.846 109.339 253.43 109.104C253.025 108.859 252.55 108.736 252.006 108.736C251.473 108.736 250.998 108.859 250.582 109.104C250.166 109.339 249.841 109.675 249.606 110.112C249.371 110.539 249.254 111.029 249.254 111.584V111.84C249.254 112.405 249.382 112.912 249.638 113.36C249.905 113.797 250.273 114.139 250.742 114.384C251.211 114.629 251.75 114.752 252.358 114.752C252.859 114.752 253.313 114.667 253.718 114.496C254.134 114.325 254.497 114.069 254.806 113.728L255.654 114.72C255.27 115.168 254.79 115.509 254.214 115.744C253.649 115.979 253.014 116.096 252.31 116.096ZM256.865 116L260.513 111.264L260.497 112.048L257.025 107.52H258.737L261.393 111.008H260.737L263.393 107.52H265.073L261.553 112.08L261.569 111.264L265.249 116H263.505L260.705 112.288L261.329 112.384L258.577 116H256.865ZM269.837 116.096C268.983 116.096 268.322 115.867 267.853 115.408C267.383 114.949 267.149 114.293 267.149 113.44V105.664H268.685V113.376C268.685 113.835 268.797 114.187 269.021 114.432C269.255 114.677 269.586 114.8 270.013 114.8C270.493 114.8 270.893 114.667 271.213 114.4L271.693 115.504C271.458 115.707 271.175 115.856 270.845 115.952C270.525 116.048 270.189 116.096 269.837 116.096ZM265.709 108.784V107.52H271.117V108.784H265.709ZM277.045 116.096C276.138 116.096 275.338 115.909 274.645 115.536C273.962 115.163 273.429 114.651 273.045 114C272.671 113.349 272.485 112.603 272.485 111.76C272.485 110.917 272.666 110.171 273.029 109.52C273.402 108.869 273.909 108.363 274.549 108C275.199 107.627 275.93 107.44 276.741 107.44C277.562 107.44 278.287 107.621 278.917 107.984C279.546 108.347 280.037 108.859 280.389 109.52C280.751 110.171 280.933 110.933 280.933 111.808C280.933 111.872 280.927 111.947 280.917 112.032C280.917 112.117 280.911 112.197 280.901 112.272H273.685V111.168H280.101L279.477 111.552C279.487 111.008 279.375 110.523 279.141 110.096C278.906 109.669 278.581 109.339 278.165 109.104C277.759 108.859 277.285 108.736 276.741 108.736C276.207 108.736 275.733 108.859 275.317 109.104C274.901 109.339 274.575 109.675 274.341 110.112C274.106 110.539 273.989 111.029 273.989 111.584V111.84C273.989 112.405 274.117 112.912 274.373 113.36C274.639 113.797 275.007 114.139 275.477 114.384C275.946 114.629 276.485 114.752 277.093 114.752C277.594 114.752 278.047 114.667 278.453 114.496C278.869 114.325 279.231 114.069 279.541 113.728L280.389 114.72C280.005 115.168 279.525 115.509 278.949 115.744C278.383 115.979 277.749 116.096 277.045 116.096ZM283.065 116V107.52H284.537V109.824L284.393 109.248C284.628 108.661 285.023 108.213 285.577 107.904C286.132 107.595 286.815 107.44 287.625 107.44V108.928C287.561 108.917 287.497 108.912 287.433 108.912C287.38 108.912 287.327 108.912 287.273 108.912C286.452 108.912 285.801 109.157 285.321 109.648C284.841 110.139 284.601 110.848 284.601 111.776V116H283.065ZM289.519 116V107.52H291.055V116H289.519ZM290.287 105.888C289.988 105.888 289.737 105.792 289.535 105.6C289.343 105.408 289.247 105.173 289.247 104.896C289.247 104.608 289.343 104.368 289.535 104.176C289.737 103.984 289.988 103.888 290.287 103.888C290.585 103.888 290.831 103.984 291.023 104.176C291.225 104.357 291.327 104.587 291.327 104.864C291.327 105.152 291.231 105.397 291.039 105.6C290.847 105.792 290.596 105.888 290.287 105.888ZM297.619 116.096C296.766 116.096 296.009 115.909 295.347 115.536C294.686 115.163 294.163 114.651 293.779 114C293.395 113.339 293.203 112.592 293.203 111.76C293.203 110.917 293.395 110.171 293.779 109.52C294.163 108.869 294.686 108.363 295.347 108C296.009 107.627 296.766 107.44 297.619 107.44C298.462 107.44 299.214 107.627 299.875 108C300.547 108.363 301.07 108.869 301.443 109.52C301.827 110.16 302.019 110.907 302.019 111.76C302.019 112.603 301.827 113.349 301.443 114C301.07 114.651 300.547 115.163 299.875 115.536C299.214 115.909 298.462 116.096 297.619 116.096ZM297.619 114.752C298.163 114.752 298.649 114.629 299.075 114.384C299.513 114.139 299.854 113.792 300.099 113.344C300.345 112.885 300.467 112.357 300.467 111.76C300.467 111.152 300.345 110.629 300.099 110.192C299.854 109.744 299.513 109.397 299.075 109.152C298.649 108.907 298.163 108.784 297.619 108.784C297.075 108.784 296.59 108.907 296.163 109.152C295.737 109.397 295.395 109.744 295.139 110.192C294.883 110.629 294.755 111.152 294.755 111.76C294.755 112.357 294.883 112.885 295.139 113.344C295.395 113.792 295.737 114.139 296.163 114.384C296.59 114.629 297.075 114.752 297.619 114.752ZM304.144 116V107.52H305.616V109.824L305.472 109.248C305.706 108.661 306.101 108.213 306.656 107.904C307.21 107.595 307.893 107.44 308.704 107.44V108.928C308.64 108.917 308.576 108.912 308.512 108.912C308.458 108.912 308.405 108.912 308.352 108.912C307.53 108.912 306.88 109.157 306.4 109.648C305.92 110.139 305.68 110.848 305.68 111.776V116H304.144ZM92.2398 142.096C91.3331 142.096 90.5331 141.909 89.8398 141.536C89.1571 141.163 88.6238 140.651 88.2398 140C87.8665 139.349 87.6798 138.603 87.6798 137.76C87.6798 136.917 87.8611 136.171 88.2238 135.52C88.5971 134.869 89.1038 134.363 89.7438 134C90.3945 133.627 91.1251 133.44 91.9358 133.44C92.7571 133.44 93.4825 133.621 94.1118 133.984C94.7411 134.347 95.2318 134.859 95.5838 135.52C95.9465 136.171 96.1278 136.933 96.1278 137.808C96.1278 137.872 96.1225 137.947 96.1118 138.032C96.1118 138.117 96.1065 138.197 96.0958 138.272H88.8798V137.168H95.2958L94.6718 137.552C94.6825 137.008 94.5705 136.523 94.3358 136.096C94.1011 135.669 93.7758 135.339 93.3598 135.104C92.9545 134.859 92.4798 134.736 91.9358 134.736C91.4025 134.736 90.9278 134.859 90.5118 135.104C90.0958 135.339 89.7705 135.675 89.5358 136.112C89.3011 136.539 89.1838 137.029 89.1838 137.584V137.84C89.1838 138.405 89.3118 138.912 89.5678 139.36C89.8345 139.797 90.2025 140.139 90.6718 140.384C91.1411 140.629 91.6798 140.752 92.2878 140.752C92.7891 140.752 93.2425 140.667 93.6478 140.496C94.0638 140.325 94.4265 140.069 94.7358 139.728L95.5838 140.72C95.1998 141.168 94.7198 141.509 94.1438 141.744C93.5785 141.979 92.9438 142.096 92.2398 142.096ZM108.869 133.44C109.551 133.44 110.154 133.573 110.677 133.84C111.199 134.107 111.605 134.512 111.893 135.056C112.191 135.6 112.341 136.288 112.341 137.12V142H110.805V137.296C110.805 136.475 110.613 135.856 110.229 135.44C109.845 135.024 109.306 134.816 108.613 134.816C108.101 134.816 107.653 134.923 107.269 135.136C106.885 135.349 106.586 135.664 106.373 136.08C106.17 136.496 106.069 137.013 106.069 137.632V142H104.533V137.296C104.533 136.475 104.341 135.856 103.957 135.44C103.583 135.024 103.045 134.816 102.341 134.816C101.839 134.816 101.397 134.923 101.013 135.136C100.629 135.349 100.33 135.664 100.117 136.08C99.9034 136.496 99.7967 137.013 99.7967 137.632V142H98.2607V133.52H99.7327V135.776L99.4927 135.2C99.7594 134.645 100.17 134.213 100.725 133.904C101.279 133.595 101.925 133.44 102.661 133.44C103.471 133.44 104.17 133.643 104.757 134.048C105.343 134.443 105.727 135.045 105.909 135.856L105.285 135.6C105.541 134.949 105.989 134.427 106.629 134.032C107.269 133.637 108.015 133.44 108.869 133.44ZM123.96 142.096C123.256 142.096 122.61 141.936 122.024 141.616C121.448 141.285 120.984 140.8 120.632 140.16C120.29 139.52 120.12 138.72 120.12 137.76C120.12 136.8 120.285 136 120.616 135.36C120.957 134.72 121.416 134.24 121.992 133.92C122.578 133.6 123.234 133.44 123.96 133.44C124.792 133.44 125.528 133.621 126.168 133.984C126.808 134.347 127.314 134.853 127.688 135.504C128.061 136.144 128.248 136.896 128.248 137.76C128.248 138.624 128.061 139.381 127.688 140.032C127.314 140.683 126.808 141.189 126.168 141.552C125.528 141.915 124.792 142.096 123.96 142.096ZM119.464 145.104V133.52H120.936V135.808L120.84 137.776L121 139.744V145.104H119.464ZM123.832 140.752C124.376 140.752 124.861 140.629 125.288 140.384C125.725 140.139 126.066 139.792 126.312 139.344C126.568 138.885 126.696 138.357 126.696 137.76C126.696 137.152 126.568 136.629 126.312 136.192C126.066 135.744 125.725 135.397 125.288 135.152C124.861 134.907 124.376 134.784 123.832 134.784C123.298 134.784 122.813 134.907 122.376 135.152C121.949 135.397 121.608 135.744 121.352 136.192C121.106 136.629 120.984 137.152 120.984 137.76C120.984 138.357 121.106 138.885 121.352 139.344C121.608 139.792 121.949 140.139 122.376 140.384C122.813 140.629 123.298 140.752 123.832 140.752ZM134.002 142.096C133.149 142.096 132.391 141.909 131.73 141.536C131.069 141.163 130.546 140.651 130.162 140C129.778 139.339 129.586 138.592 129.586 137.76C129.586 136.917 129.778 136.171 130.162 135.52C130.546 134.869 131.069 134.363 131.73 134C132.391 133.627 133.149 133.44 134.002 133.44C134.845 133.44 135.597 133.627 136.258 134C136.93 134.363 137.453 134.869 137.826 135.52C138.21 136.16 138.402 136.907 138.402 137.76C138.402 138.603 138.21 139.349 137.826 140C137.453 140.651 136.93 141.163 136.258 141.536C135.597 141.909 134.845 142.096 134.002 142.096ZM134.002 140.752C134.546 140.752 135.031 140.629 135.458 140.384C135.895 140.139 136.237 139.792 136.482 139.344C136.727 138.885 136.85 138.357 136.85 137.76C136.85 137.152 136.727 136.629 136.482 136.192C136.237 135.744 135.895 135.397 135.458 135.152C135.031 134.907 134.546 134.784 134.002 134.784C133.458 134.784 132.973 134.907 132.546 135.152C132.119 135.397 131.778 135.744 131.522 136.192C131.266 136.629 131.138 137.152 131.138 137.76C131.138 138.357 131.266 138.885 131.522 139.344C131.778 139.792 132.119 140.139 132.546 140.384C132.973 140.629 133.458 140.752 134.002 140.752ZM144.094 142.096C143.369 142.096 142.729 141.963 142.174 141.696C141.63 141.429 141.204 141.024 140.894 140.48C140.596 139.925 140.446 139.232 140.446 138.4V133.52H141.982V138.224C141.982 139.056 142.18 139.68 142.574 140.096C142.98 140.512 143.545 140.72 144.27 140.72C144.804 140.72 145.268 140.613 145.662 140.4C146.057 140.176 146.361 139.856 146.574 139.44C146.788 139.013 146.894 138.501 146.894 137.904V133.52H148.43V142H146.974V139.712L147.214 140.32C146.937 140.885 146.521 141.323 145.966 141.632C145.412 141.941 144.788 142.096 144.094 142.096ZM155.05 142.096C154.186 142.096 153.413 141.909 152.73 141.536C152.058 141.163 151.53 140.651 151.146 140C150.762 139.349 150.57 138.603 150.57 137.76C150.57 136.917 150.762 136.171 151.146 135.52C151.53 134.869 152.058 134.363 152.73 134C153.413 133.627 154.186 133.44 155.05 133.44C155.818 133.44 156.501 133.595 157.098 133.904C157.706 134.203 158.176 134.651 158.506 135.248L157.338 136C157.061 135.584 156.72 135.28 156.314 135.088C155.92 134.885 155.493 134.784 155.034 134.784C154.48 134.784 153.984 134.907 153.546 135.152C153.109 135.397 152.762 135.744 152.506 136.192C152.25 136.629 152.122 137.152 152.122 137.76C152.122 138.368 152.25 138.896 152.506 139.344C152.762 139.792 153.109 140.139 153.546 140.384C153.984 140.629 154.48 140.752 155.034 140.752C155.493 140.752 155.92 140.656 156.314 140.464C156.72 140.261 157.061 139.952 157.338 139.536L158.506 140.272C158.176 140.859 157.706 141.312 157.098 141.632C156.501 141.941 155.818 142.096 155.05 142.096ZM164.002 142.096C163.149 142.096 162.391 141.909 161.73 141.536C161.069 141.163 160.546 140.651 160.162 140C159.778 139.339 159.586 138.592 159.586 137.76C159.586 136.917 159.778 136.171 160.162 135.52C160.546 134.869 161.069 134.363 161.73 134C162.391 133.627 163.149 133.44 164.002 133.44C164.845 133.44 165.597 133.627 166.258 134C166.93 134.363 167.453 134.869 167.826 135.52C168.21 136.16 168.402 136.907 168.402 137.76C168.402 138.603 168.21 139.349 167.826 140C167.453 140.651 166.93 141.163 166.258 141.536C165.597 141.909 164.845 142.096 164.002 142.096ZM164.002 140.752C164.546 140.752 165.031 140.629 165.458 140.384C165.895 140.139 166.237 139.792 166.482 139.344C166.727 138.885 166.85 138.357 166.85 137.76C166.85 137.152 166.727 136.629 166.482 136.192C166.237 135.744 165.895 135.397 165.458 135.152C165.031 134.907 164.546 134.784 164.002 134.784C163.458 134.784 162.973 134.907 162.546 135.152C162.119 135.397 161.778 135.744 161.522 136.192C161.266 136.629 161.138 137.152 161.138 137.76C161.138 138.357 161.266 138.885 161.522 139.344C161.778 139.792 162.119 140.139 162.546 140.384C162.973 140.629 163.458 140.752 164.002 140.752ZM172.958 142.096C172.254 142.096 171.582 142 170.942 141.808C170.313 141.616 169.817 141.381 169.454 141.104L170.094 139.888C170.457 140.133 170.905 140.341 171.438 140.512C171.972 140.683 172.516 140.768 173.07 140.768C173.785 140.768 174.297 140.667 174.606 140.464C174.926 140.261 175.086 139.979 175.086 139.616C175.086 139.349 174.99 139.141 174.798 138.992C174.606 138.843 174.35 138.731 174.03 138.656C173.721 138.581 173.374 138.517 172.99 138.464C172.606 138.4 172.222 138.325 171.838 138.24C171.454 138.144 171.102 138.016 170.782 137.856C170.462 137.685 170.206 137.456 170.014 137.168C169.822 136.869 169.726 136.475 169.726 135.984C169.726 135.472 169.87 135.024 170.158 134.64C170.446 134.256 170.852 133.963 171.374 133.76C171.908 133.547 172.537 133.44 173.262 133.44C173.817 133.44 174.377 133.509 174.942 133.648C175.518 133.776 175.988 133.963 176.35 134.208L175.694 135.424C175.31 135.168 174.91 134.992 174.494 134.896C174.078 134.8 173.662 134.752 173.246 134.752C172.574 134.752 172.073 134.864 171.742 135.088C171.412 135.301 171.246 135.579 171.246 135.92C171.246 136.208 171.342 136.432 171.534 136.592C171.737 136.741 171.993 136.859 172.302 136.944C172.622 137.029 172.974 137.104 173.358 137.168C173.742 137.221 174.126 137.296 174.51 137.392C174.894 137.477 175.241 137.6 175.55 137.76C175.87 137.92 176.126 138.144 176.318 138.432C176.521 138.72 176.622 139.104 176.622 139.584C176.622 140.096 176.473 140.539 176.174 140.912C175.876 141.285 175.454 141.579 174.91 141.792C174.366 141.995 173.716 142.096 172.958 142.096ZM193.447 133.44C194.129 133.44 194.732 133.573 195.255 133.84C195.777 134.107 196.183 134.512 196.471 135.056C196.769 135.6 196.919 136.288 196.919 137.12V142H195.383V137.296C195.383 136.475 195.191 135.856 194.807 135.44C194.423 135.024 193.884 134.816 193.191 134.816C192.679 134.816 192.231 134.923 191.847 135.136C191.463 135.349 191.164 135.664 190.951 136.08C190.748 136.496 190.647 137.013 190.647 137.632V142H189.111V137.296C189.111 136.475 188.919 135.856 188.535 135.44C188.161 135.024 187.623 134.816 186.919 134.816C186.417 134.816 185.975 134.923 185.591 135.136C185.207 135.349 184.908 135.664 184.695 136.08C184.481 136.496 184.375 137.013 184.375 137.632V142H182.839V133.52H184.311V135.776L184.071 135.2C184.337 134.645 184.748 134.213 185.303 133.904C185.857 133.595 186.503 133.44 187.239 133.44C188.049 133.44 188.748 133.643 189.335 134.048C189.921 134.443 190.305 135.045 190.487 135.856L189.863 135.6C190.119 134.949 190.567 134.427 191.207 134.032C191.847 133.637 192.593 133.44 193.447 133.44ZM199.745 142V133.52H201.281V142H199.745ZM200.513 131.888C200.214 131.888 199.964 131.792 199.761 131.6C199.569 131.408 199.473 131.173 199.473 130.896C199.473 130.608 199.569 130.368 199.761 130.176C199.964 129.984 200.214 129.888 200.513 129.888C200.812 129.888 201.057 129.984 201.249 130.176C201.452 130.357 201.553 130.587 201.553 130.864C201.553 131.152 201.457 131.397 201.265 131.6C201.073 131.792 200.822 131.888 200.513 131.888ZM208.742 133.44C209.435 133.44 210.043 133.573 210.566 133.84C211.099 134.107 211.515 134.512 211.814 135.056C212.112 135.6 212.262 136.288 212.262 137.12V142H210.726V137.296C210.726 136.475 210.523 135.856 210.118 135.44C209.723 135.024 209.163 134.816 208.438 134.816C207.894 134.816 207.419 134.923 207.014 135.136C206.608 135.349 206.294 135.664 206.07 136.08C205.856 136.496 205.75 137.013 205.75 137.632V142H204.214V133.52H205.686V135.808L205.446 135.2C205.723 134.645 206.15 134.213 206.726 133.904C207.302 133.595 207.974 133.44 208.742 133.44ZM218.672 142.096C217.947 142.096 217.307 141.963 216.752 141.696C216.208 141.429 215.782 141.024 215.472 140.48C215.174 139.925 215.024 139.232 215.024 138.4V133.52H216.56V138.224C216.56 139.056 216.758 139.68 217.152 140.096C217.558 140.512 218.123 140.72 218.848 140.72C219.382 140.72 219.846 140.613 220.24 140.4C220.635 140.176 220.939 139.856 221.152 139.44C221.366 139.013 221.472 138.501 221.472 137.904V133.52H223.008V142H221.552V139.712L221.792 140.32C221.515 140.885 221.099 141.323 220.544 141.632C219.99 141.941 219.366 142.096 218.672 142.096ZM228.845 142.096C227.991 142.096 227.33 141.867 226.861 141.408C226.391 140.949 226.157 140.293 226.157 139.44V131.664H227.693V139.376C227.693 139.835 227.805 140.187 228.029 140.432C228.263 140.677 228.594 140.8 229.021 140.8C229.501 140.8 229.901 140.667 230.221 140.4L230.701 141.504C230.466 141.707 230.183 141.856 229.853 141.952C229.533 142.048 229.197 142.096 228.845 142.096ZM224.717 134.784V133.52H230.125V134.784H224.717ZM235.908 142.096C235.055 142.096 234.298 141.909 233.636 141.536C232.975 141.163 232.452 140.651 232.068 140C231.684 139.339 231.492 138.592 231.492 137.76C231.492 136.917 231.684 136.171 232.068 135.52C232.452 134.869 232.975 134.363 233.636 134C234.298 133.627 235.055 133.44 235.908 133.44C236.751 133.44 237.503 133.627 238.164 134C238.836 134.363 239.359 134.869 239.732 135.52C240.116 136.16 240.308 136.907 240.308 137.76C240.308 138.603 240.116 139.349 239.732 140C239.359 140.651 238.836 141.163 238.164 141.536C237.503 141.909 236.751 142.096 235.908 142.096ZM235.908 140.752C236.452 140.752 236.938 140.629 237.364 140.384C237.802 140.139 238.143 139.792 238.388 139.344C238.634 138.885 238.756 138.357 238.756 137.76C238.756 137.152 238.634 136.629 238.388 136.192C238.143 135.744 237.802 135.397 237.364 135.152C236.938 134.907 236.452 134.784 235.908 134.784C235.364 134.784 234.879 134.907 234.452 135.152C234.026 135.397 233.684 135.744 233.428 136.192C233.172 136.629 233.044 137.152 233.044 137.76C233.044 138.357 233.172 138.885 233.428 139.344C233.684 139.792 234.026 140.139 234.452 140.384C234.879 140.629 235.364 140.752 235.908 140.752ZM244.865 142.096C244.161 142.096 243.489 142 242.849 141.808C242.219 141.616 241.723 141.381 241.361 141.104L242.001 139.888C242.363 140.133 242.811 140.341 243.345 140.512C243.878 140.683 244.422 140.768 244.977 140.768C245.691 140.768 246.203 140.667 246.513 140.464C246.833 140.261 246.993 139.979 246.993 139.616C246.993 139.349 246.897 139.141 246.705 138.992C246.513 138.843 246.257 138.731 245.937 138.656C245.627 138.581 245.281 138.517 244.897 138.464C244.513 138.4 244.129 138.325 243.745 138.24C243.361 138.144 243.009 138.016 242.689 137.856C242.369 137.685 242.113 137.456 241.921 137.168C241.729 136.869 241.633 136.475 241.633 135.984C241.633 135.472 241.777 135.024 242.065 134.64C242.353 134.256 242.758 133.963 243.281 133.76C243.814 133.547 244.443 133.44 245.169 133.44C245.723 133.44 246.283 133.509 246.849 133.648C247.425 133.776 247.894 133.963 248.257 134.208L247.601 135.424C247.217 135.168 246.817 134.992 246.401 134.896C245.985 134.8 245.569 134.752 245.153 134.752C244.481 134.752 243.979 134.864 243.649 135.088C243.318 135.301 243.153 135.579 243.153 135.92C243.153 136.208 243.249 136.432 243.441 136.592C243.643 136.741 243.899 136.859 244.209 136.944C244.529 137.029 244.881 137.104 245.265 137.168C245.649 137.221 246.033 137.296 246.417 137.392C246.801 137.477 247.147 137.6 247.457 137.76C247.777 137.92 248.033 138.144 248.225 138.432C248.427 138.72 248.529 139.104 248.529 139.584C248.529 140.096 248.379 140.539 248.081 140.912C247.782 141.285 247.361 141.579 246.817 141.792C246.273 141.995 245.622 142.096 244.865 142.096Z" fill="#C9C9C9"/>
<path d="M131.692 79V66.4H137.146C138.274 66.4 139.246 66.586 140.062 66.958C140.878 67.318 141.508 67.84 141.952 68.524C142.396 69.208 142.618 70.024 142.618 70.972C142.618 71.908 142.396 72.718 141.952 73.402C141.508 74.074 140.878 74.59 140.062 74.95C139.246 75.31 138.274 75.49 137.146 75.49H133.312L134.608 74.212V79H131.692ZM139.702 79L136.552 74.428H139.666L142.852 79H139.702ZM134.608 74.536L133.312 73.168H136.984C137.884 73.168 138.556 72.976 139 72.592C139.444 72.196 139.666 71.656 139.666 70.972C139.666 70.276 139.444 69.736 139 69.352C138.556 68.968 137.884 68.776 136.984 68.776H133.312L134.608 67.39V74.536ZM150.583 79V77.11L150.403 76.696V73.312C150.403 72.712 150.217 72.244 149.845 71.908C149.485 71.572 148.927 71.404 148.171 71.404C147.655 71.404 147.145 71.488 146.641 71.656C146.149 71.812 145.729 72.028 145.381 72.304L144.373 70.342C144.901 69.97 145.537 69.682 146.281 69.478C147.025 69.274 147.781 69.172 148.549 69.172C150.025 69.172 151.171 69.52 151.987 70.216C152.803 70.912 153.211 71.998 153.211 73.474V79H150.583ZM147.631 79.144C146.875 79.144 146.227 79.018 145.687 78.766C145.147 78.502 144.733 78.148 144.445 77.704C144.157 77.26 144.013 76.762 144.013 76.21C144.013 75.634 144.151 75.13 144.427 74.698C144.715 74.266 145.165 73.93 145.777 73.69C146.389 73.438 147.187 73.312 148.171 73.312H150.745V74.95H148.477C147.817 74.95 147.361 75.058 147.109 75.274C146.869 75.49 146.749 75.76 146.749 76.084C146.749 76.444 146.887 76.732 147.163 76.948C147.451 77.152 147.841 77.254 148.333 77.254C148.801 77.254 149.221 77.146 149.593 76.93C149.965 76.702 150.235 76.372 150.403 75.94L150.835 77.236C150.631 77.86 150.259 78.334 149.719 78.658C149.179 78.982 148.483 79.144 147.631 79.144ZM161.476 79.144C160.66 79.144 159.946 78.964 159.334 78.604C158.722 78.244 158.242 77.698 157.894 76.966C157.558 76.222 157.39 75.286 157.39 74.158C157.39 73.018 157.552 72.082 157.876 71.35C158.2 70.618 158.668 70.072 159.28 69.712C159.892 69.352 160.624 69.172 161.476 69.172C162.388 69.172 163.204 69.382 163.924 69.802C164.656 70.21 165.232 70.786 165.652 71.53C166.084 72.274 166.3 73.15 166.3 74.158C166.3 75.178 166.084 76.06 165.652 76.804C165.232 77.548 164.656 78.124 163.924 78.532C163.204 78.94 162.388 79.144 161.476 79.144ZM155.752 82.492V69.316H158.434V71.296L158.38 74.176L158.56 77.038V82.492H155.752ZM160.99 76.84C161.458 76.84 161.872 76.732 162.232 76.516C162.604 76.3 162.898 75.994 163.114 75.598C163.342 75.19 163.456 74.71 163.456 74.158C163.456 73.594 163.342 73.114 163.114 72.718C162.898 72.322 162.604 72.016 162.232 71.8C161.872 71.584 161.458 71.476 160.99 71.476C160.522 71.476 160.102 71.584 159.73 71.8C159.358 72.016 159.064 72.322 158.848 72.718C158.632 73.114 158.524 73.594 158.524 74.158C158.524 74.71 158.632 75.19 158.848 75.598C159.064 75.994 159.358 76.3 159.73 76.516C160.102 76.732 160.522 76.84 160.99 76.84ZM168.18 79V69.316H170.988V79H168.18ZM169.584 67.966C169.068 67.966 168.648 67.816 168.324 67.516C168 67.216 167.838 66.844 167.838 66.4C167.838 65.956 168 65.584 168.324 65.284C168.648 64.984 169.068 64.834 169.584 64.834C170.1 64.834 170.52 64.978 170.844 65.266C171.168 65.542 171.33 65.902 171.33 66.346C171.33 66.814 171.168 67.204 170.844 67.516C170.532 67.816 170.112 67.966 169.584 67.966ZM177.752 79.144C176.84 79.144 176.018 78.94 175.286 78.532C174.554 78.112 173.972 77.53 173.54 76.786C173.12 76.042 172.91 75.166 172.91 74.158C172.91 73.138 173.12 72.256 173.54 71.512C173.972 70.768 174.554 70.192 175.286 69.784C176.018 69.376 176.84 69.172 177.752 69.172C178.568 69.172 179.282 69.352 179.894 69.712C180.506 70.072 180.98 70.618 181.316 71.35C181.652 72.082 181.82 73.018 181.82 74.158C181.82 75.286 181.658 76.222 181.334 76.966C181.01 77.698 180.542 78.244 179.93 78.604C179.33 78.964 178.604 79.144 177.752 79.144ZM178.238 76.84C178.694 76.84 179.108 76.732 179.48 76.516C179.852 76.3 180.146 75.994 180.362 75.598C180.59 75.19 180.704 74.71 180.704 74.158C180.704 73.594 180.59 73.114 180.362 72.718C180.146 72.322 179.852 72.016 179.48 71.8C179.108 71.584 178.694 71.476 178.238 71.476C177.77 71.476 177.35 71.584 176.978 71.8C176.606 72.016 176.306 72.322 176.078 72.718C175.862 73.114 175.754 73.594 175.754 74.158C175.754 74.71 175.862 75.19 176.078 75.598C176.306 75.994 176.606 76.3 176.978 76.516C177.35 76.732 177.77 76.84 178.238 76.84ZM180.776 79V77.02L180.83 74.14L180.65 71.278V65.644H183.458V79H180.776ZM190.863 79.144C189.759 79.144 188.787 78.928 187.947 78.496C187.119 78.064 186.477 77.476 186.021 76.732C185.565 75.976 185.337 75.118 185.337 74.158C185.337 73.186 185.559 72.328 186.003 71.584C186.459 70.828 187.077 70.24 187.857 69.82C188.637 69.388 189.519 69.172 190.503 69.172C191.451 69.172 192.303 69.376 193.059 69.784C193.827 70.18 194.433 70.756 194.877 71.512C195.321 72.256 195.543 73.15 195.543 74.194C195.543 74.302 195.537 74.428 195.525 74.572C195.513 74.704 195.501 74.83 195.489 74.95H187.623V73.312H194.013L192.933 73.798C192.933 73.294 192.831 72.856 192.627 72.484C192.423 72.112 192.141 71.824 191.781 71.62C191.421 71.404 191.001 71.296 190.521 71.296C190.041 71.296 189.615 71.404 189.243 71.62C188.883 71.824 188.601 72.118 188.397 72.502C188.193 72.874 188.091 73.318 188.091 73.834V74.266C188.091 74.794 188.205 75.262 188.433 75.67C188.673 76.066 189.003 76.372 189.423 76.588C189.855 76.792 190.359 76.894 190.935 76.894C191.451 76.894 191.901 76.816 192.285 76.66C192.681 76.504 193.041 76.27 193.365 75.958L194.859 77.578C194.415 78.082 193.857 78.472 193.185 78.748C192.513 79.012 191.739 79.144 190.863 79.144ZM196.658 79V77.308L202.382 70.54L202.868 71.476H196.784V69.316H205.136V71.008L199.412 77.776L198.908 76.84H205.298V79H196.658Z" fill="white"/>
<g clip-path="url(#clip0_1_217)">
<path d="M191.016 0.00589828C181.646 -0.162102 170.96 4.7359 164.196 12.3339C157.732 12.4559 151.438 15.1059 146.804 19.7399C146.534 20.0059 146.438 20.4039 146.556 20.7639C146.676 21.1259 146.988 21.3879 147.364 21.4419L155.072 22.5459L154.12 23.6119C153.766 24.0079 153.784 24.6099 154.16 24.9859L167.014 37.8399C167.208 38.0339 167.464 38.1319 167.722 38.1319C167.96 38.1319 168.198 38.0479 168.388 37.8779L169.454 36.9259L170.558 44.6339C170.612 45.0099 170.908 45.2859 171.266 45.4059C171.358 45.4359 171.454 45.4499 171.552 45.4499C171.836 45.4499 172.126 45.3259 172.326 45.1279C176.896 40.5579 179.546 34.2639 179.668 27.7999C187.274 21.0219 192.212 10.3399 191.994 0.981898C191.98 0.449898 191.55 0.0198983 191.016 0.00589828ZM181.8 17.2699C180.826 18.2439 179.546 18.7319 178.264 18.7319C176.982 18.7319 175.702 18.2439 174.728 17.2699C172.78 15.3199 172.78 12.1479 174.728 10.1979C176.678 8.2479 179.85 8.2479 181.8 10.1979C183.75 12.1479 183.75 15.3219 181.8 17.2699Z" fill="#00B9FC"/>
<path d="M149.448 33.8099C147.308 35.9499 144.37 45.6179 144.042 46.7119C143.936 47.0639 144.034 47.4459 144.292 47.7059C144.484 47.8979 144.738 47.9999 145 47.9999C145.096 47.9999 145.192 47.9859 145.288 47.9579C146.382 47.6299 156.05 44.6919 158.19 42.5519C160.6 40.1419 160.6 36.2199 158.19 33.8099C155.778 31.3999 151.858 31.4019 149.448 33.8099Z" fill="#00B9FC"/>
</g>
<defs>
<clipPath id="clip0_1_217">
<rect width="48" height="48" fill="white" transform="translate(144)"/>
</clipPath>
</defs>
</svg>
