<svg width="46" height="46" viewBox="0 0 46 46" fill="none" xmlns="http://www.w3.org/2000/svg">
<path d="M45.016 0.00589828C35.646 -0.162102 24.96 4.7359 18.196 12.3339C11.732 12.4559 5.438 15.1059 0.804 19.7399C0.534 20.0059 0.438 20.4039 0.556 20.7639C0.676 21.1259 0.988 21.3879 1.364 21.4419L9.072 22.5459L8.12 23.6119C7.766 24.0079 7.784 24.6099 8.16 24.9859L21.014 37.8399C21.208 38.0339 21.464 38.1319 21.722 38.1319C21.96 38.1319 22.198 38.0479 22.388 37.8779L23.454 36.9259L24.558 44.6339C24.612 45.0099 24.908 45.2859 25.266 45.4059C25.358 45.4359 25.454 45.4499 25.552 45.4499C25.836 45.4499 26.126 45.3259 26.326 45.1279C30.896 40.5579 33.546 34.2639 33.668 27.7999C41.274 21.0219 46.212 10.3399 45.994 0.981898C45.98 0.449898 45.55 0.0198983 45.016 0.00589828ZM35.8 17.2699C34.826 18.2439 33.546 18.7319 32.264 18.7319C30.982 18.7319 29.702 18.2439 28.728 17.2699C26.78 15.3199 26.78 12.1479 28.728 10.1979C30.678 8.2479 33.85 8.2479 35.8 10.1979C37.75 12.1479 37.75 15.3219 35.8 17.2699Z" fill="#00B9FC"/>
</svg>
