<svg width="336" height="146" viewBox="0 0 336 146" fill="none" xmlns="http://www.w3.org/2000/svg">
<path d="M61.8364 116.128C60.9831 116.128 60.1938 115.989 59.4684 115.712C58.7538 115.424 58.1298 115.024 57.5964 114.512C57.0738 113.989 56.6631 113.381 56.3644 112.688C56.0658 111.995 55.9164 111.232 55.9164 110.4C55.9164 109.568 56.0658 108.805 56.3644 108.112C56.6631 107.419 57.0791 106.816 57.6124 106.304C58.1458 105.781 58.7698 105.381 59.4844 105.104C60.2098 104.816 60.9991 104.672 61.8524 104.672C62.7164 104.672 63.5111 104.821 64.2364 105.12C64.9724 105.408 65.5964 105.84 66.1084 106.416L65.0684 107.424C64.6418 106.976 64.1618 106.645 63.6284 106.432C63.0951 106.208 62.5244 106.096 61.9164 106.096C61.2871 106.096 60.7004 106.203 60.1564 106.416C59.6231 106.629 59.1591 106.928 58.7644 107.312C58.3698 107.696 58.0604 108.155 57.8364 108.688C57.6231 109.211 57.5164 109.781 57.5164 110.4C57.5164 111.019 57.6231 111.595 57.8364 112.128C58.0604 112.651 58.3698 113.104 58.7644 113.488C59.1591 113.872 59.6231 114.171 60.1564 114.384C60.7004 114.597 61.2871 114.704 61.9164 114.704C62.5244 114.704 63.0951 114.597 63.6284 114.384C64.1618 114.16 64.6418 113.819 65.0684 113.36L66.1084 114.368C65.5964 114.944 64.9724 115.381 64.2364 115.68C63.5111 115.979 62.7111 116.128 61.8364 116.128ZM71.4396 116.096C70.5862 116.096 69.8289 115.909 69.1676 115.536C68.5062 115.163 67.9836 114.651 67.5996 114C67.2156 113.339 67.0236 112.592 67.0236 111.76C67.0236 110.917 67.2156 110.171 67.5996 109.52C67.9836 108.869 68.5062 108.363 69.1676 108C69.8289 107.627 70.5862 107.44 71.4396 107.44C72.2822 107.44 73.0342 107.627 73.6956 108C74.3676 108.363 74.8902 108.869 75.2636 109.52C75.6476 110.16 75.8396 110.907 75.8396 111.76C75.8396 112.603 75.6476 113.349 75.2636 114C74.8902 114.651 74.3676 115.163 73.6956 115.536C73.0342 115.909 72.2822 116.096 71.4396 116.096ZM71.4396 114.752C71.9836 114.752 72.4689 114.629 72.8956 114.384C73.3329 114.139 73.6742 113.792 73.9196 113.344C74.1649 112.885 74.2876 112.357 74.2876 111.76C74.2876 111.152 74.1649 110.629 73.9196 110.192C73.6742 109.744 73.3329 109.397 72.8956 109.152C72.4689 108.907 71.9836 108.784 71.4396 108.784C70.8956 108.784 70.4102 108.907 69.9836 109.152C69.5569 109.397 69.2156 109.744 68.9596 110.192C68.7036 110.629 68.5756 111.152 68.5756 111.76C68.5756 112.357 68.7036 112.885 68.9596 113.344C69.2156 113.792 69.5569 114.139 69.9836 114.384C70.4102 114.629 70.8956 114.752 71.4396 114.752ZM82.4918 107.44C83.1851 107.44 83.7931 107.573 84.3158 107.84C84.8491 108.107 85.2651 108.512 85.5638 109.056C85.8625 109.6 86.0118 110.288 86.0118 111.12V116H84.4758V111.296C84.4758 110.475 84.2731 109.856 83.8678 109.44C83.4731 109.024 82.9131 108.816 82.1878 108.816C81.6438 108.816 81.1691 108.923 80.7638 109.136C80.3585 109.349 80.0438 109.664 79.8198 110.08C79.6065 110.496 79.4998 111.013 79.4998 111.632V116H77.9638V107.52H79.4358V109.808L79.1958 109.2C79.4731 108.645 79.8998 108.213 80.4758 107.904C81.0518 107.595 81.7238 107.44 82.4918 107.44ZM91.7664 116.096C90.9131 116.096 90.2518 115.867 89.7824 115.408C89.3131 114.949 89.0784 114.293 89.0784 113.44V105.664H90.6144V113.376C90.6144 113.835 90.7264 114.187 90.9504 114.432C91.1851 114.677 91.5158 114.8 91.9424 114.8C92.4224 114.8 92.8224 114.667 93.1424 114.4L93.6224 115.504C93.3878 115.707 93.1051 115.856 92.7744 115.952C92.4544 116.048 92.1184 116.096 91.7664 116.096ZM87.6384 108.784V107.52H93.0464V108.784H87.6384ZM98.9742 116.096C98.0675 116.096 97.2675 115.909 96.5742 115.536C95.8915 115.163 95.3582 114.651 94.9742 114C94.6009 113.349 94.4142 112.603 94.4142 111.76C94.4142 110.917 94.5955 110.171 94.9582 109.52C95.3315 108.869 95.8382 108.363 96.4782 108C97.1289 107.627 97.8595 107.44 98.6702 107.44C99.4915 107.44 100.217 107.621 100.846 107.984C101.476 108.347 101.966 108.859 102.318 109.52C102.681 110.171 102.862 110.933 102.862 111.808C102.862 111.872 102.857 111.947 102.846 112.032C102.846 112.117 102.841 112.197 102.83 112.272H95.6142V111.168H102.03L101.406 111.552C101.417 111.008 101.305 110.523 101.07 110.096C100.836 109.669 100.51 109.339 100.094 109.104C99.6889 108.859 99.2142 108.736 98.6702 108.736C98.1369 108.736 97.6622 108.859 97.2462 109.104C96.8302 109.339 96.5049 109.675 96.2702 110.112C96.0355 110.539 95.9182 111.029 95.9182 111.584V111.84C95.9182 112.405 96.0462 112.912 96.3022 113.36C96.5689 113.797 96.9369 114.139 97.4062 114.384C97.8755 114.629 98.4142 114.752 99.0222 114.752C99.5235 114.752 99.9769 114.667 100.382 114.496C100.798 114.325 101.161 114.069 101.47 113.728L102.318 114.72C101.934 115.168 101.454 115.509 100.878 115.744C100.313 115.979 99.6782 116.096 98.9742 116.096ZM112.988 116.096C112.124 116.096 111.351 115.909 110.668 115.536C109.996 115.163 109.468 114.651 109.084 114C108.7 113.349 108.508 112.603 108.508 111.76C108.508 110.917 108.7 110.171 109.084 109.52C109.468 108.869 109.996 108.363 110.668 108C111.351 107.627 112.124 107.44 112.988 107.44C113.756 107.44 114.439 107.595 115.036 107.904C115.644 108.203 116.113 108.651 116.444 109.248L115.276 110C114.999 109.584 114.657 109.28 114.252 109.088C113.857 108.885 113.431 108.784 112.972 108.784C112.417 108.784 111.921 108.907 111.484 109.152C111.047 109.397 110.7 109.744 110.444 110.192C110.188 110.629 110.06 111.152 110.06 111.76C110.06 112.368 110.188 112.896 110.444 113.344C110.7 113.792 111.047 114.139 111.484 114.384C111.921 114.629 112.417 114.752 112.972 114.752C113.431 114.752 113.857 114.656 114.252 114.464C114.657 114.261 114.999 113.952 115.276 113.536L116.444 114.272C116.113 114.859 115.644 115.312 115.036 115.632C114.439 115.941 113.756 116.096 112.988 116.096ZM121.94 116.096C121.086 116.096 120.329 115.909 119.668 115.536C119.006 115.163 118.484 114.651 118.1 114C117.716 113.339 117.524 112.592 117.524 111.76C117.524 110.917 117.716 110.171 118.1 109.52C118.484 108.869 119.006 108.363 119.668 108C120.329 107.627 121.086 107.44 121.94 107.44C122.782 107.44 123.534 107.627 124.196 108C124.868 108.363 125.39 108.869 125.764 109.52C126.148 110.16 126.34 110.907 126.34 111.76C126.34 112.603 126.148 113.349 125.764 114C125.39 114.651 124.868 115.163 124.196 115.536C123.534 115.909 122.782 116.096 121.94 116.096ZM121.94 114.752C122.484 114.752 122.969 114.629 123.396 114.384C123.833 114.139 124.174 113.792 124.42 113.344C124.665 112.885 124.788 112.357 124.788 111.76C124.788 111.152 124.665 110.629 124.42 110.192C124.174 109.744 123.833 109.397 123.396 109.152C122.969 108.907 122.484 108.784 121.94 108.784C121.396 108.784 120.91 108.907 120.484 109.152C120.057 109.397 119.716 109.744 119.46 110.192C119.204 110.629 119.076 111.152 119.076 111.76C119.076 112.357 119.204 112.885 119.46 113.344C119.716 113.792 120.057 114.139 120.484 114.384C120.91 114.629 121.396 114.752 121.94 114.752ZM139.072 107.44C139.754 107.44 140.357 107.573 140.88 107.84C141.402 108.107 141.808 108.512 142.096 109.056C142.394 109.6 142.544 110.288 142.544 111.12V116H141.008V111.296C141.008 110.475 140.816 109.856 140.432 109.44C140.048 109.024 139.509 108.816 138.816 108.816C138.304 108.816 137.856 108.923 137.472 109.136C137.088 109.349 136.789 109.664 136.576 110.08C136.373 110.496 136.272 111.013 136.272 111.632V116H134.736V111.296C134.736 110.475 134.544 109.856 134.16 109.44C133.786 109.024 133.248 108.816 132.544 108.816C132.042 108.816 131.6 108.923 131.216 109.136C130.832 109.349 130.533 109.664 130.32 110.08C130.106 110.496 130 111.013 130 111.632V116H128.464V107.52H129.936V109.776L129.696 109.2C129.962 108.645 130.373 108.213 130.928 107.904C131.482 107.595 132.128 107.44 132.864 107.44C133.674 107.44 134.373 107.643 134.96 108.048C135.546 108.443 135.93 109.045 136.112 109.856L135.488 109.6C135.744 108.949 136.192 108.427 136.832 108.032C137.472 107.637 138.218 107.44 139.072 107.44ZM154.195 107.44C154.888 107.44 155.496 107.573 156.019 107.84C156.552 108.107 156.968 108.512 157.267 109.056C157.566 109.6 157.715 110.288 157.715 111.12V116H156.179V111.296C156.179 110.475 155.976 109.856 155.571 109.44C155.176 109.024 154.616 108.816 153.891 108.816C153.347 108.816 152.872 108.923 152.467 109.136C152.062 109.349 151.747 109.664 151.523 110.08C151.31 110.496 151.203 111.013 151.203 111.632V116H149.667V107.52H151.139V109.808L150.899 109.2C151.176 108.645 151.603 108.213 152.179 107.904C152.755 107.595 153.427 107.44 154.195 107.44ZM164.19 116.096C163.336 116.096 162.579 115.909 161.918 115.536C161.256 115.163 160.734 114.651 160.35 114C159.966 113.339 159.774 112.592 159.774 111.76C159.774 110.917 159.966 110.171 160.35 109.52C160.734 108.869 161.256 108.363 161.918 108C162.579 107.627 163.336 107.44 164.19 107.44C165.032 107.44 165.784 107.627 166.446 108C167.118 108.363 167.64 108.869 168.014 109.52C168.398 110.16 168.59 110.907 168.59 111.76C168.59 112.603 168.398 113.349 168.014 114C167.64 114.651 167.118 115.163 166.446 115.536C165.784 115.909 165.032 116.096 164.19 116.096ZM164.19 114.752C164.734 114.752 165.219 114.629 165.646 114.384C166.083 114.139 166.424 113.792 166.67 113.344C166.915 112.885 167.038 112.357 167.038 111.76C167.038 111.152 166.915 110.629 166.67 110.192C166.424 109.744 166.083 109.397 165.646 109.152C165.219 108.907 164.734 108.784 164.19 108.784C163.646 108.784 163.16 108.907 162.734 109.152C162.307 109.397 161.966 109.744 161.71 110.192C161.454 110.629 161.326 111.152 161.326 111.76C161.326 112.357 161.454 112.885 161.71 113.344C161.966 113.792 162.307 114.139 162.734 114.384C163.16 114.629 163.646 114.752 164.19 114.752ZM173.146 116.096C172.442 116.096 171.77 116 171.13 115.808C170.5 115.616 170.004 115.381 169.642 115.104L170.282 113.888C170.644 114.133 171.092 114.341 171.626 114.512C172.159 114.683 172.703 114.768 173.258 114.768C173.972 114.768 174.484 114.667 174.794 114.464C175.114 114.261 175.274 113.979 175.274 113.616C175.274 113.349 175.178 113.141 174.986 112.992C174.794 112.843 174.538 112.731 174.218 112.656C173.908 112.581 173.562 112.517 173.178 112.464C172.794 112.4 172.41 112.325 172.026 112.24C171.642 112.144 171.29 112.016 170.97 111.856C170.65 111.685 170.394 111.456 170.202 111.168C170.01 110.869 169.914 110.475 169.914 109.984C169.914 109.472 170.058 109.024 170.346 108.64C170.634 108.256 171.039 107.963 171.562 107.76C172.095 107.547 172.724 107.44 173.45 107.44C174.004 107.44 174.564 107.509 175.13 107.648C175.706 107.776 176.175 107.963 176.538 108.208L175.882 109.424C175.498 109.168 175.098 108.992 174.682 108.896C174.266 108.8 173.85 108.752 173.434 108.752C172.762 108.752 172.26 108.864 171.93 109.088C171.599 109.301 171.434 109.579 171.434 109.92C171.434 110.208 171.53 110.432 171.722 110.592C171.924 110.741 172.18 110.859 172.49 110.944C172.81 111.029 173.162 111.104 173.546 111.168C173.93 111.221 174.314 111.296 174.698 111.392C175.082 111.477 175.428 111.6 175.738 111.76C176.058 111.92 176.314 112.144 176.506 112.432C176.708 112.72 176.81 113.104 176.81 113.584C176.81 114.096 176.66 114.539 176.362 114.912C176.063 115.285 175.642 115.579 175.098 115.792C174.554 115.995 173.903 116.096 173.146 116.096ZM181.161 116.096C180.457 116.096 179.785 116 179.145 115.808C178.516 115.616 178.02 115.381 177.657 115.104L178.297 113.888C178.66 114.133 179.108 114.341 179.641 114.512C180.175 114.683 180.719 114.768 181.273 114.768C181.988 114.768 182.5 114.667 182.809 114.464C183.129 114.261 183.289 113.979 183.289 113.616C183.289 113.349 183.193 113.141 183.001 112.992C182.809 112.843 182.553 112.731 182.233 112.656C181.924 112.581 181.577 112.517 181.193 112.464C180.809 112.4 180.425 112.325 180.041 112.24C179.657 112.144 179.305 112.016 178.985 111.856C178.665 111.685 178.409 111.456 178.217 111.168C178.025 110.869 177.929 110.475 177.929 109.984C177.929 109.472 178.073 109.024 178.361 108.64C178.649 108.256 179.055 107.963 179.577 107.76C180.111 107.547 180.74 107.44 181.465 107.44C182.02 107.44 182.58 107.509 183.145 107.648C183.721 107.776 184.191 107.963 184.553 108.208L183.897 109.424C183.513 109.168 183.113 108.992 182.697 108.896C182.281 108.8 181.865 108.752 181.449 108.752C180.777 108.752 180.276 108.864 179.945 109.088C179.615 109.301 179.449 109.579 179.449 109.92C179.449 110.208 179.545 110.432 179.737 110.592C179.94 110.741 180.196 110.859 180.505 110.944C180.825 111.029 181.177 111.104 181.561 111.168C181.945 111.221 182.329 111.296 182.713 111.392C183.097 111.477 183.444 111.6 183.753 111.76C184.073 111.92 184.329 112.144 184.521 112.432C184.724 112.72 184.825 113.104 184.825 113.584C184.825 114.096 184.676 114.539 184.377 114.912C184.079 115.285 183.657 115.579 183.113 115.792C182.569 115.995 181.919 116.096 181.161 116.096ZM192.009 116V114.208L191.929 113.872V110.816C191.929 110.165 191.737 109.664 191.353 109.312C190.98 108.949 190.414 108.768 189.657 108.768C189.156 108.768 188.665 108.853 188.185 109.024C187.705 109.184 187.3 109.403 186.969 109.68L186.329 108.528C186.766 108.176 187.289 107.909 187.897 107.728C188.516 107.536 189.161 107.44 189.833 107.44C190.996 107.44 191.892 107.723 192.521 108.288C193.15 108.853 193.465 109.717 193.465 110.88V116H192.009ZM189.225 116.096C188.596 116.096 188.041 115.989 187.561 115.776C187.092 115.563 186.729 115.269 186.473 114.896C186.217 114.512 186.089 114.08 186.089 113.6C186.089 113.141 186.196 112.725 186.409 112.352C186.633 111.979 186.99 111.68 187.481 111.456C187.982 111.232 188.654 111.12 189.497 111.12H192.185V112.224H189.561C188.793 112.224 188.276 112.352 188.009 112.608C187.742 112.864 187.609 113.173 187.609 113.536C187.609 113.952 187.774 114.288 188.105 114.544C188.436 114.789 188.894 114.912 189.481 114.912C190.057 114.912 190.558 114.784 190.985 114.528C191.422 114.272 191.737 113.899 191.929 113.408L192.233 114.464C192.03 114.965 191.673 115.365 191.161 115.664C190.649 115.952 190.004 116.096 189.225 116.096ZM204.38 116.096C203.474 116.096 202.674 115.909 201.98 115.536C201.298 115.163 200.764 114.651 200.38 114C200.007 113.349 199.82 112.603 199.82 111.76C199.82 110.917 200.002 110.171 200.364 109.52C200.738 108.869 201.244 108.363 201.884 108C202.535 107.627 203.266 107.44 204.076 107.44C204.898 107.44 205.623 107.621 206.252 107.984C206.882 108.347 207.372 108.859 207.724 109.52C208.087 110.171 208.268 110.933 208.268 111.808C208.268 111.872 208.263 111.947 208.252 112.032C208.252 112.117 208.247 112.197 208.236 112.272H201.02V111.168H207.436L206.812 111.552C206.823 111.008 206.711 110.523 206.476 110.096C206.242 109.669 205.916 109.339 205.5 109.104C205.095 108.859 204.62 108.736 204.076 108.736C203.543 108.736 203.068 108.859 202.652 109.104C202.236 109.339 201.911 109.675 201.676 110.112C201.442 110.539 201.324 111.029 201.324 111.584V111.84C201.324 112.405 201.452 112.912 201.708 113.36C201.975 113.797 202.343 114.139 202.812 114.384C203.282 114.629 203.82 114.752 204.428 114.752C204.93 114.752 205.383 114.667 205.788 114.496C206.204 114.325 206.567 114.069 206.876 113.728L207.724 114.72C207.34 115.168 206.86 115.509 206.284 115.744C205.719 115.979 205.084 116.096 204.38 116.096ZM213.905 116.096C213.084 116.096 212.348 115.915 211.697 115.552C211.057 115.189 210.551 114.683 210.177 114.032C209.804 113.381 209.617 112.624 209.617 111.76C209.617 110.896 209.804 110.144 210.177 109.504C210.551 108.853 211.057 108.347 211.697 107.984C212.348 107.621 213.084 107.44 213.905 107.44C214.641 107.44 215.297 107.6 215.873 107.92C216.449 108.24 216.903 108.72 217.233 109.36C217.575 110 217.745 110.8 217.745 111.76C217.745 112.72 217.569 113.52 217.217 114.16C216.876 114.8 216.417 115.285 215.841 115.616C215.265 115.936 214.62 116.096 213.905 116.096ZM214.033 114.752C214.567 114.752 215.047 114.629 215.473 114.384C215.911 114.139 216.252 113.792 216.497 113.344C216.753 112.885 216.881 112.357 216.881 111.76C216.881 111.152 216.753 110.629 216.497 110.192C216.252 109.744 215.911 109.397 215.473 109.152C215.047 108.907 214.567 108.784 214.033 108.784C213.489 108.784 213.004 108.907 212.577 109.152C212.151 109.397 211.809 109.744 211.553 110.192C211.297 110.629 211.169 111.152 211.169 111.76C211.169 112.357 211.297 112.885 211.553 113.344C211.809 113.792 212.151 114.139 212.577 114.384C213.004 114.629 213.489 114.752 214.033 114.752ZM216.865 119.104V113.744L217.025 111.776L216.929 109.808V107.52H218.401V119.104H216.865ZM224.876 116.096C224.15 116.096 223.51 115.963 222.956 115.696C222.412 115.429 221.985 115.024 221.676 114.48C221.377 113.925 221.228 113.232 221.228 112.4V107.52H222.764V112.224C222.764 113.056 222.961 113.68 223.356 114.096C223.761 114.512 224.326 114.72 225.052 114.72C225.585 114.72 226.049 114.613 226.444 114.4C226.838 114.176 227.142 113.856 227.356 113.44C227.569 113.013 227.676 112.501 227.676 111.904V107.52H229.212V116H227.756V113.712L227.996 114.32C227.718 114.885 227.302 115.323 226.748 115.632C226.193 115.941 225.569 116.096 224.876 116.096ZM232.136 116V107.52H233.672V116H232.136ZM232.904 105.888C232.605 105.888 232.354 105.792 232.152 105.6C231.96 105.408 231.864 105.173 231.864 104.896C231.864 104.608 231.96 104.368 232.152 104.176C232.354 103.984 232.605 103.888 232.904 103.888C233.202 103.888 233.448 103.984 233.64 104.176C233.842 104.357 233.944 104.587 233.944 104.864C233.944 105.152 233.848 105.397 233.656 105.6C233.464 105.792 233.213 105.888 232.904 105.888ZM241.1 116.096C240.396 116.096 239.751 115.936 239.164 115.616C238.588 115.285 238.124 114.8 237.772 114.16C237.431 113.52 237.26 112.72 237.26 111.76C237.26 110.8 237.426 110 237.756 109.36C238.098 108.72 238.556 108.24 239.132 107.92C239.719 107.6 240.375 107.44 241.1 107.44C241.932 107.44 242.668 107.621 243.308 107.984C243.948 108.347 244.455 108.853 244.828 109.504C245.202 110.144 245.388 110.896 245.388 111.76C245.388 112.624 245.202 113.381 244.828 114.032C244.455 114.683 243.948 115.189 243.308 115.552C242.668 115.915 241.932 116.096 241.1 116.096ZM236.604 119.104V107.52H238.076V109.808L237.98 111.776L238.14 113.744V119.104H236.604ZM240.972 114.752C241.516 114.752 242.002 114.629 242.428 114.384C242.866 114.139 243.207 113.792 243.452 113.344C243.708 112.885 243.836 112.357 243.836 111.76C243.836 111.152 243.708 110.629 243.452 110.192C243.207 109.744 242.866 109.397 242.428 109.152C242.002 108.907 241.516 108.784 240.972 108.784C240.439 108.784 239.954 108.907 239.516 109.152C239.09 109.397 238.748 109.744 238.492 110.192C238.247 110.629 238.124 111.152 238.124 111.76C238.124 112.357 238.247 112.885 238.492 113.344C238.748 113.792 239.09 114.139 239.516 114.384C239.954 114.629 240.439 114.752 240.972 114.752ZM251.287 116.096C250.38 116.096 249.58 115.909 248.887 115.536C248.204 115.163 247.671 114.651 247.287 114C246.913 113.349 246.727 112.603 246.727 111.76C246.727 110.917 246.908 110.171 247.271 109.52C247.644 108.869 248.151 108.363 248.791 108C249.441 107.627 250.172 107.44 250.983 107.44C251.804 107.44 252.529 107.621 253.159 107.984C253.788 108.347 254.279 108.859 254.631 109.52C254.993 110.171 255.175 110.933 255.175 111.808C255.175 111.872 255.169 111.947 255.159 112.032C255.159 112.117 255.153 112.197 255.143 112.272H247.927V111.168H254.343L253.719 111.552C253.729 111.008 253.617 110.523 253.383 110.096C253.148 109.669 252.823 109.339 252.407 109.104C252.001 108.859 251.527 108.736 250.983 108.736C250.449 108.736 249.975 108.859 249.559 109.104C249.143 109.339 248.817 109.675 248.583 110.112C248.348 110.539 248.231 111.029 248.231 111.584V111.84C248.231 112.405 248.359 112.912 248.615 113.36C248.881 113.797 249.249 114.139 249.719 114.384C250.188 114.629 250.727 114.752 251.335 114.752C251.836 114.752 252.289 114.667 252.695 114.496C253.111 114.325 253.473 114.069 253.783 113.728L254.631 114.72C254.247 115.168 253.767 115.509 253.191 115.744C252.625 115.979 251.991 116.096 251.287 116.096ZM265.108 116.096C264.287 116.096 263.551 115.915 262.9 115.552C262.26 115.189 261.754 114.683 261.38 114.032C261.007 113.381 260.82 112.624 260.82 111.76C260.82 110.896 261.007 110.144 261.38 109.504C261.754 108.853 262.26 108.347 262.9 107.984C263.551 107.621 264.287 107.44 265.108 107.44C265.823 107.44 266.468 107.6 267.044 107.92C267.62 108.24 268.079 108.72 268.42 109.36C268.772 110 268.948 110.8 268.948 111.76C268.948 112.72 268.778 113.52 268.436 114.16C268.106 114.8 267.652 115.285 267.076 115.616C266.5 115.936 265.844 116.096 265.108 116.096ZM265.236 114.752C265.77 114.752 266.25 114.629 266.676 114.384C267.114 114.139 267.455 113.792 267.7 113.344C267.956 112.885 268.084 112.357 268.084 111.76C268.084 111.152 267.956 110.629 267.7 110.192C267.455 109.744 267.114 109.397 266.676 109.152C266.25 108.907 265.77 108.784 265.236 108.784C264.692 108.784 264.207 108.907 263.78 109.152C263.354 109.397 263.012 109.744 262.756 110.192C262.5 110.629 262.372 111.152 262.372 111.76C262.372 112.357 262.5 112.885 262.756 113.344C263.012 113.792 263.354 114.139 263.78 114.384C264.207 114.629 264.692 114.752 265.236 114.752ZM268.132 116V113.712L268.228 111.744L268.068 109.776V104.128H269.604V116H268.132ZM276.287 116.096C275.38 116.096 274.58 115.909 273.887 115.536C273.204 115.163 272.671 114.651 272.287 114C271.913 113.349 271.727 112.603 271.727 111.76C271.727 110.917 271.908 110.171 272.271 109.52C272.644 108.869 273.151 108.363 273.791 108C274.441 107.627 275.172 107.44 275.983 107.44C276.804 107.44 277.529 107.621 278.159 107.984C278.788 108.347 279.279 108.859 279.631 109.52C279.993 110.171 280.175 110.933 280.175 111.808C280.175 111.872 280.169 111.947 280.159 112.032C280.159 112.117 280.153 112.197 280.143 112.272H272.927V111.168H279.343L278.719 111.552C278.729 111.008 278.617 110.523 278.383 110.096C278.148 109.669 277.823 109.339 277.407 109.104C277.001 108.859 276.527 108.736 275.983 108.736C275.449 108.736 274.975 108.859 274.559 109.104C274.143 109.339 273.817 109.675 273.583 110.112C273.348 110.539 273.231 111.029 273.231 111.584V111.84C273.231 112.405 273.359 112.912 273.615 113.36C273.881 113.797 274.249 114.139 274.719 114.384C275.188 114.629 275.727 114.752 276.335 114.752C276.836 114.752 277.289 114.667 277.695 114.496C278.111 114.325 278.473 114.069 278.783 113.728L279.631 114.72C279.247 115.168 278.767 115.509 278.191 115.744C277.625 115.979 276.991 116.096 276.287 116.096ZM60.0289 142.096C59.1222 142.096 58.3222 141.909 57.6289 141.536C56.9462 141.163 56.4129 140.651 56.0289 140C55.6555 139.349 55.4689 138.603 55.4689 137.76C55.4689 136.917 55.6502 136.171 56.0129 135.52C56.3862 134.869 56.8929 134.363 57.5329 134C58.1835 133.627 58.9142 133.44 59.7249 133.44C60.5462 133.44 61.2715 133.621 61.9009 133.984C62.5302 134.347 63.0209 134.859 63.3729 135.52C63.7355 136.171 63.9169 136.933 63.9169 137.808C63.9169 137.872 63.9115 137.947 63.9009 138.032C63.9009 138.117 63.8955 138.197 63.8849 138.272H56.6689V137.168H63.0849L62.4609 137.552C62.4715 137.008 62.3595 136.523 62.1249 136.096C61.8902 135.669 61.5649 135.339 61.1489 135.104C60.7435 134.859 60.2689 134.736 59.7249 134.736C59.1915 134.736 58.7169 134.859 58.3009 135.104C57.8849 135.339 57.5595 135.675 57.3249 136.112C57.0902 136.539 56.9729 137.029 56.9729 137.584V137.84C56.9729 138.405 57.1009 138.912 57.3569 139.36C57.6235 139.797 57.9915 140.139 58.4609 140.384C58.9302 140.629 59.4689 140.752 60.0769 140.752C60.5782 140.752 61.0315 140.667 61.4369 140.496C61.8529 140.325 62.2155 140.069 62.5249 139.728L63.3729 140.72C62.9889 141.168 62.5089 141.509 61.9329 141.744C61.3675 141.979 60.7329 142.096 60.0289 142.096ZM68.4818 142.096C67.7778 142.096 67.1058 142 66.4658 141.808C65.8364 141.616 65.3404 141.381 64.9778 141.104L65.6178 139.888C65.9804 140.133 66.4284 140.341 66.9618 140.512C67.4951 140.683 68.0391 140.768 68.5938 140.768C69.3084 140.768 69.8204 140.667 70.1298 140.464C70.4498 140.261 70.6098 139.979 70.6098 139.616C70.6098 139.349 70.5138 139.141 70.3218 138.992C70.1298 138.843 69.8738 138.731 69.5538 138.656C69.2444 138.581 68.8978 138.517 68.5138 138.464C68.1298 138.4 67.7458 138.325 67.3618 138.24C66.9778 138.144 66.6258 138.016 66.3058 137.856C65.9858 137.685 65.7298 137.456 65.5378 137.168C65.3458 136.869 65.2498 136.475 65.2498 135.984C65.2498 135.472 65.3938 135.024 65.6818 134.64C65.9698 134.256 66.3751 133.963 66.8978 133.76C67.4311 133.547 68.0604 133.44 68.7858 133.44C69.3404 133.44 69.9004 133.509 70.4658 133.648C71.0418 133.776 71.5111 133.963 71.8738 134.208L71.2178 135.424C70.8338 135.168 70.4338 134.992 70.0178 134.896C69.6018 134.8 69.1858 134.752 68.7698 134.752C68.0978 134.752 67.5964 134.864 67.2658 135.088C66.9351 135.301 66.7698 135.579 66.7698 135.92C66.7698 136.208 66.8658 136.432 67.0578 136.592C67.2604 136.741 67.5164 136.859 67.8258 136.944C68.1458 137.029 68.4978 137.104 68.8818 137.168C69.2658 137.221 69.6498 137.296 70.0338 137.392C70.4178 137.477 70.7644 137.6 71.0738 137.76C71.3938 137.92 71.6498 138.144 71.8418 138.432C72.0444 138.72 72.1458 139.104 72.1458 139.584C72.1458 140.096 71.9964 140.539 71.6978 140.912C71.3991 141.285 70.9778 141.579 70.4338 141.792C69.8898 141.995 69.2391 142.096 68.4818 142.096ZM78.5614 142.096C77.8574 142.096 77.212 141.936 76.6254 141.616C76.0494 141.285 75.5854 140.8 75.2334 140.16C74.892 139.52 74.7214 138.72 74.7214 137.76C74.7214 136.8 74.8867 136 75.2174 135.36C75.5587 134.72 76.0174 134.24 76.5934 133.92C77.18 133.6 77.836 133.44 78.5614 133.44C79.3934 133.44 80.1294 133.621 80.7694 133.984C81.4094 134.347 81.916 134.853 82.2894 135.504C82.6627 136.144 82.8494 136.896 82.8494 137.76C82.8494 138.624 82.6627 139.381 82.2894 140.032C81.916 140.683 81.4094 141.189 80.7694 141.552C80.1294 141.915 79.3934 142.096 78.5614 142.096ZM74.0654 145.104V133.52H75.5374V135.808L75.4414 137.776L75.6014 139.744V145.104H74.0654ZM78.4334 140.752C78.9774 140.752 79.4627 140.629 79.8894 140.384C80.3267 140.139 80.668 139.792 80.9134 139.344C81.1694 138.885 81.2974 138.357 81.2974 137.76C81.2974 137.152 81.1694 136.629 80.9134 136.192C80.668 135.744 80.3267 135.397 79.8894 135.152C79.4627 134.907 78.9774 134.784 78.4334 134.784C77.9 134.784 77.4147 134.907 76.9774 135.152C76.5507 135.397 76.2094 135.744 75.9534 136.192C75.708 136.629 75.5854 137.152 75.5854 137.76C75.5854 138.357 75.708 138.885 75.9534 139.344C76.2094 139.792 76.5507 140.139 76.9774 140.384C77.4147 140.629 77.9 140.752 78.4334 140.752ZM88.7476 142.096C87.841 142.096 87.041 141.909 86.3476 141.536C85.665 141.163 85.1316 140.651 84.7476 140C84.3743 139.349 84.1876 138.603 84.1876 137.76C84.1876 136.917 84.369 136.171 84.7316 135.52C85.105 134.869 85.6116 134.363 86.2516 134C86.9023 133.627 87.633 133.44 88.4436 133.44C89.265 133.44 89.9903 133.621 90.6196 133.984C91.249 134.347 91.7396 134.859 92.0916 135.52C92.4543 136.171 92.6356 136.933 92.6356 137.808C92.6356 137.872 92.6303 137.947 92.6196 138.032C92.6196 138.117 92.6143 138.197 92.6036 138.272H85.3876V137.168H91.8036L91.1796 137.552C91.1903 137.008 91.0783 136.523 90.8436 136.096C90.609 135.669 90.2836 135.339 89.8676 135.104C89.4623 134.859 88.9876 134.736 88.4436 134.736C87.9103 134.736 87.4356 134.859 87.0196 135.104C86.6036 135.339 86.2783 135.675 86.0436 136.112C85.809 136.539 85.6916 137.029 85.6916 137.584V137.84C85.6916 138.405 85.8196 138.912 86.0756 139.36C86.3423 139.797 86.7103 140.139 87.1796 140.384C87.649 140.629 88.1876 140.752 88.7956 140.752C89.297 140.752 89.7503 140.667 90.1556 140.496C90.5716 140.325 90.9343 140.069 91.2436 139.728L92.0916 140.72C91.7076 141.168 91.2276 141.509 90.6516 141.744C90.0863 141.979 89.4516 142.096 88.7476 142.096ZM98.4645 142.096C97.6005 142.096 96.8272 141.909 96.1445 141.536C95.4725 141.163 94.9445 140.651 94.5605 140C94.1765 139.349 93.9845 138.603 93.9845 137.76C93.9845 136.917 94.1765 136.171 94.5605 135.52C94.9445 134.869 95.4725 134.363 96.1445 134C96.8272 133.627 97.6005 133.44 98.4645 133.44C99.2325 133.44 99.9152 133.595 100.513 133.904C101.121 134.203 101.59 134.651 101.921 135.248L100.753 136C100.475 135.584 100.134 135.28 99.7285 135.088C99.3338 134.885 98.9072 134.784 98.4485 134.784C97.8938 134.784 97.3978 134.907 96.9605 135.152C96.5232 135.397 96.1765 135.744 95.9205 136.192C95.6645 136.629 95.5365 137.152 95.5365 137.76C95.5365 138.368 95.6645 138.896 95.9205 139.344C96.1765 139.792 96.5232 140.139 96.9605 140.384C97.3978 140.629 97.8938 140.752 98.4485 140.752C98.9072 140.752 99.3338 140.656 99.7285 140.464C100.134 140.261 100.475 139.952 100.753 139.536L101.921 140.272C101.59 140.859 101.121 141.312 100.513 141.632C99.9152 141.941 99.2325 142.096 98.4645 142.096ZM103.8 142V133.52H105.336V142H103.8ZM104.568 131.888C104.269 131.888 104.018 131.792 103.816 131.6C103.624 131.408 103.528 131.173 103.528 130.896C103.528 130.608 103.624 130.368 103.816 130.176C104.018 129.984 104.269 129.888 104.568 129.888C104.866 129.888 105.112 129.984 105.304 130.176C105.506 130.357 105.608 130.587 105.608 130.864C105.608 131.152 105.512 131.397 105.32 131.6C105.128 131.792 104.877 131.888 104.568 131.888ZM113.533 142V140.208L113.453 139.872V136.816C113.453 136.165 113.261 135.664 112.877 135.312C112.503 134.949 111.938 134.768 111.181 134.768C110.679 134.768 110.189 134.853 109.709 135.024C109.229 135.184 108.823 135.403 108.493 135.68L107.853 134.528C108.29 134.176 108.813 133.909 109.421 133.728C110.039 133.536 110.685 133.44 111.357 133.44C112.519 133.44 113.415 133.723 114.045 134.288C114.674 134.853 114.989 135.717 114.989 136.88V142H113.533ZM110.749 142.096C110.119 142.096 109.565 141.989 109.085 141.776C108.615 141.563 108.253 141.269 107.997 140.896C107.741 140.512 107.613 140.08 107.613 139.6C107.613 139.141 107.719 138.725 107.933 138.352C108.157 137.979 108.514 137.68 109.005 137.456C109.506 137.232 110.178 137.12 111.021 137.12H113.709V138.224H111.085C110.317 138.224 109.799 138.352 109.533 138.608C109.266 138.864 109.133 139.173 109.133 139.536C109.133 139.952 109.298 140.288 109.629 140.544C109.959 140.789 110.418 140.912 111.005 140.912C111.581 140.912 112.082 140.784 112.509 140.528C112.946 140.272 113.261 139.899 113.453 139.408L113.757 140.464C113.554 140.965 113.197 141.365 112.685 141.664C112.173 141.952 111.527 142.096 110.749 142.096ZM117.831 142V130.128H119.367V142H117.831ZM122.3 142V133.52H123.836V142H122.3ZM123.068 131.888C122.769 131.888 122.518 131.792 122.316 131.6C122.124 131.408 122.028 131.173 122.028 130.896C122.028 130.608 122.124 130.368 122.316 130.176C122.518 129.984 122.769 129.888 123.068 129.888C123.366 129.888 123.612 129.984 123.804 130.176C124.006 130.357 124.108 130.587 124.108 130.864C124.108 131.152 124.012 131.397 123.82 131.6C123.628 131.792 123.377 131.888 123.068 131.888ZM129.201 142.096C128.497 142.096 127.825 142 127.185 141.808C126.555 141.616 126.059 141.381 125.697 141.104L126.337 139.888C126.699 140.133 127.147 140.341 127.681 140.512C128.214 140.683 128.758 140.768 129.312 140.768C130.027 140.768 130.539 140.667 130.849 140.464C131.169 140.261 131.329 139.979 131.329 139.616C131.329 139.349 131.233 139.141 131.041 138.992C130.849 138.843 130.593 138.731 130.273 138.656C129.963 138.581 129.617 138.517 129.233 138.464C128.849 138.4 128.465 138.325 128.081 138.24C127.697 138.144 127.345 138.016 127.025 137.856C126.705 137.685 126.449 137.456 126.257 137.168C126.065 136.869 125.969 136.475 125.969 135.984C125.969 135.472 126.113 135.024 126.401 134.64C126.689 134.256 127.094 133.963 127.617 133.76C128.15 133.547 128.779 133.44 129.505 133.44C130.059 133.44 130.619 133.509 131.185 133.648C131.761 133.776 132.23 133.963 132.593 134.208L131.937 135.424C131.553 135.168 131.153 134.992 130.737 134.896C130.321 134.8 129.905 134.752 129.489 134.752C128.817 134.752 128.315 134.864 127.985 135.088C127.654 135.301 127.489 135.579 127.489 135.92C127.489 136.208 127.585 136.432 127.777 136.592C127.979 136.741 128.235 136.859 128.545 136.944C128.865 137.029 129.217 137.104 129.601 137.168C129.985 137.221 130.369 137.296 130.753 137.392C131.137 137.477 131.483 137.6 131.793 137.76C132.113 137.92 132.369 138.144 132.561 138.432C132.763 138.72 132.865 139.104 132.865 139.584C132.865 140.096 132.715 140.539 132.417 140.912C132.118 141.285 131.697 141.579 131.153 141.792C130.609 141.995 129.958 142.096 129.201 142.096ZM137.696 142.096C136.843 142.096 136.181 141.867 135.712 141.408C135.243 140.949 135.008 140.293 135.008 139.44V131.664H136.544V139.376C136.544 139.835 136.656 140.187 136.88 140.432C137.115 140.677 137.445 140.8 137.872 140.8C138.352 140.8 138.752 140.667 139.072 140.4L139.552 141.504C139.317 141.707 139.035 141.856 138.704 141.952C138.384 142.048 138.048 142.096 137.696 142.096ZM133.568 134.784V133.52H138.976V134.784H133.568ZM146.673 142V140.208L146.593 139.872V136.816C146.593 136.165 146.401 135.664 146.017 135.312C145.644 134.949 145.078 134.768 144.321 134.768C143.82 134.768 143.329 134.853 142.849 135.024C142.369 135.184 141.964 135.403 141.633 135.68L140.993 134.528C141.43 134.176 141.953 133.909 142.561 133.728C143.18 133.536 143.825 133.44 144.497 133.44C145.66 133.44 146.556 133.723 147.185 134.288C147.814 134.853 148.129 135.717 148.129 136.88V142H146.673ZM143.889 142.096C143.26 142.096 142.705 141.989 142.225 141.776C141.756 141.563 141.393 141.269 141.137 140.896C140.881 140.512 140.753 140.08 140.753 139.6C140.753 139.141 140.86 138.725 141.073 138.352C141.297 137.979 141.654 137.68 142.145 137.456C142.646 137.232 143.318 137.12 144.161 137.12H146.849V138.224H144.225C143.457 138.224 142.94 138.352 142.673 138.608C142.406 138.864 142.273 139.173 142.273 139.536C142.273 139.952 142.438 140.288 142.769 140.544C143.1 140.789 143.558 140.912 144.145 140.912C144.721 140.912 145.222 140.784 145.649 140.528C146.086 140.272 146.401 139.899 146.593 139.408L146.897 140.464C146.694 140.965 146.337 141.365 145.825 141.664C145.313 141.952 144.668 142.096 143.889 142.096ZM153.404 142.096C152.7 142.096 152.028 142 151.388 141.808C150.758 141.616 150.262 141.381 149.9 141.104L150.54 139.888C150.902 140.133 151.35 140.341 151.884 140.512C152.417 140.683 152.961 140.768 153.516 140.768C154.23 140.768 154.742 140.667 155.052 140.464C155.372 140.261 155.532 139.979 155.532 139.616C155.532 139.349 155.436 139.141 155.244 138.992C155.052 138.843 154.796 138.731 154.476 138.656C154.166 138.581 153.82 138.517 153.436 138.464C153.052 138.4 152.668 138.325 152.284 138.24C151.9 138.144 151.548 138.016 151.228 137.856C150.908 137.685 150.652 137.456 150.46 137.168C150.268 136.869 150.172 136.475 150.172 135.984C150.172 135.472 150.316 135.024 150.604 134.64C150.892 134.256 151.297 133.963 151.82 133.76C152.353 133.547 152.982 133.44 153.708 133.44C154.262 133.44 154.822 133.509 155.388 133.648C155.964 133.776 156.433 133.963 156.796 134.208L156.14 135.424C155.756 135.168 155.356 134.992 154.94 134.896C154.524 134.8 154.108 134.752 153.692 134.752C153.02 134.752 152.518 134.864 152.188 135.088C151.857 135.301 151.692 135.579 151.692 135.92C151.692 136.208 151.788 136.432 151.98 136.592C152.182 136.741 152.438 136.859 152.748 136.944C153.068 137.029 153.42 137.104 153.804 137.168C154.188 137.221 154.572 137.296 154.956 137.392C155.34 137.477 155.686 137.6 155.996 137.76C156.316 137.92 156.572 138.144 156.764 138.432C156.966 138.72 157.068 139.104 157.068 139.584C157.068 140.096 156.918 140.539 156.62 140.912C156.321 141.285 155.9 141.579 155.356 141.792C154.812 141.995 154.161 142.096 153.404 142.096ZM167.06 142.096C166.153 142.096 165.353 141.909 164.66 141.536C163.977 141.163 163.444 140.651 163.06 140C162.687 139.349 162.5 138.603 162.5 137.76C162.5 136.917 162.681 136.171 163.044 135.52C163.417 134.869 163.924 134.363 164.564 134C165.215 133.627 165.945 133.44 166.756 133.44C167.577 133.44 168.303 133.621 168.932 133.984C169.561 134.347 170.052 134.859 170.404 135.52C170.767 136.171 170.948 136.933 170.948 137.808C170.948 137.872 170.943 137.947 170.932 138.032C170.932 138.117 170.927 138.197 170.916 138.272H163.7V137.168H170.116L169.492 137.552C169.503 137.008 169.391 136.523 169.156 136.096C168.921 135.669 168.596 135.339 168.18 135.104C167.775 134.859 167.3 134.736 166.756 134.736C166.223 134.736 165.748 134.859 165.332 135.104C164.916 135.339 164.591 135.675 164.356 136.112C164.121 136.539 164.004 137.029 164.004 137.584V137.84C164.004 138.405 164.132 138.912 164.388 139.36C164.655 139.797 165.023 140.139 165.492 140.384C165.961 140.629 166.5 140.752 167.108 140.752C167.609 140.752 168.063 140.667 168.468 140.496C168.884 140.325 169.247 140.069 169.556 139.728L170.404 140.72C170.02 141.168 169.54 141.509 168.964 141.744C168.399 141.979 167.764 142.096 167.06 142.096ZM183.689 133.44C184.372 133.44 184.974 133.573 185.497 133.84C186.02 134.107 186.425 134.512 186.713 135.056C187.012 135.6 187.161 136.288 187.161 137.12V142H185.625V137.296C185.625 136.475 185.433 135.856 185.049 135.44C184.665 135.024 184.126 134.816 183.433 134.816C182.921 134.816 182.473 134.923 182.089 135.136C181.705 135.349 181.406 135.664 181.193 136.08C180.99 136.496 180.889 137.013 180.889 137.632V142H179.353V137.296C179.353 136.475 179.161 135.856 178.777 135.44C178.404 135.024 177.865 134.816 177.161 134.816C176.66 134.816 176.217 134.923 175.833 135.136C175.449 135.349 175.15 135.664 174.937 136.08C174.724 136.496 174.617 137.013 174.617 137.632V142H173.081V133.52H174.553V135.776L174.313 135.2C174.58 134.645 174.99 134.213 175.545 133.904C176.1 133.595 176.745 133.44 177.481 133.44C178.292 133.44 178.99 133.643 179.577 134.048C180.164 134.443 180.548 135.045 180.729 135.856L180.105 135.6C180.361 134.949 180.809 134.427 181.449 134.032C182.089 133.637 182.836 133.44 183.689 133.44ZM197.196 142.096C196.343 142.096 195.681 141.867 195.212 141.408C194.743 140.949 194.508 140.293 194.508 139.44V131.664H196.044V139.376C196.044 139.835 196.156 140.187 196.38 140.432C196.615 140.677 196.945 140.8 197.372 140.8C197.852 140.8 198.252 140.667 198.572 140.4L199.052 141.504C198.817 141.707 198.535 141.856 198.204 141.952C197.884 142.048 197.548 142.096 197.196 142.096ZM193.068 134.784V133.52H198.476V134.784H193.068ZM204.404 142.096C203.497 142.096 202.697 141.909 202.004 141.536C201.321 141.163 200.788 140.651 200.404 140C200.031 139.349 199.844 138.603 199.844 137.76C199.844 136.917 200.025 136.171 200.388 135.52C200.761 134.869 201.268 134.363 201.908 134C202.559 133.627 203.289 133.44 204.1 133.44C204.921 133.44 205.647 133.621 206.276 133.984C206.905 134.347 207.396 134.859 207.748 135.52C208.111 136.171 208.292 136.933 208.292 137.808C208.292 137.872 208.287 137.947 208.276 138.032C208.276 138.117 208.271 138.197 208.26 138.272H201.044V137.168H207.46L206.836 137.552C206.847 137.008 206.735 136.523 206.5 136.096C206.265 135.669 205.94 135.339 205.524 135.104C205.119 134.859 204.644 134.736 204.1 134.736C203.567 134.736 203.092 134.859 202.676 135.104C202.26 135.339 201.935 135.675 201.7 136.112C201.465 136.539 201.348 137.029 201.348 137.584V137.84C201.348 138.405 201.476 138.912 201.732 139.36C201.999 139.797 202.367 140.139 202.836 140.384C203.305 140.629 203.844 140.752 204.452 140.752C204.953 140.752 205.407 140.667 205.812 140.496C206.228 140.325 206.591 140.069 206.9 139.728L207.748 140.72C207.364 141.168 206.884 141.509 206.308 141.744C205.743 141.979 205.108 142.096 204.404 142.096ZM221.033 133.44C221.715 133.44 222.318 133.573 222.841 133.84C223.363 134.107 223.769 134.512 224.057 135.056C224.355 135.6 224.505 136.288 224.505 137.12V142H222.969V137.296C222.969 136.475 222.777 135.856 222.393 135.44C222.009 135.024 221.47 134.816 220.777 134.816C220.265 134.816 219.817 134.923 219.433 135.136C219.049 135.349 218.75 135.664 218.537 136.08C218.334 136.496 218.233 137.013 218.233 137.632V142H216.697V137.296C216.697 136.475 216.505 135.856 216.121 135.44C215.747 135.024 215.209 134.816 214.505 134.816C214.003 134.816 213.561 134.923 213.177 135.136C212.793 135.349 212.494 135.664 212.281 136.08C212.067 136.496 211.961 137.013 211.961 137.632V142H210.425V133.52H211.897V135.776L211.657 135.2C211.923 134.645 212.334 134.213 212.889 133.904C213.443 133.595 214.089 133.44 214.825 133.44C215.635 133.44 216.334 133.643 216.921 134.048C217.507 134.443 217.891 135.045 218.073 135.856L217.449 135.6C217.705 134.949 218.153 134.427 218.793 134.032C219.433 133.637 220.179 133.44 221.033 133.44ZM231.827 142.096C231.123 142.096 230.478 141.936 229.891 141.616C229.315 141.285 228.851 140.8 228.499 140.16C228.158 139.52 227.987 138.72 227.987 137.76C227.987 136.8 228.152 136 228.483 135.36C228.824 134.72 229.283 134.24 229.859 133.92C230.446 133.6 231.102 133.44 231.827 133.44C232.659 133.44 233.395 133.621 234.035 133.984C234.675 134.347 235.182 134.853 235.555 135.504C235.928 136.144 236.115 136.896 236.115 137.76C236.115 138.624 235.928 139.381 235.555 140.032C235.182 140.683 234.675 141.189 234.035 141.552C233.395 141.915 232.659 142.096 231.827 142.096ZM227.331 145.104V133.52H228.803V135.808L228.707 137.776L228.867 139.744V145.104H227.331ZM231.699 140.752C232.243 140.752 232.728 140.629 233.155 140.384C233.592 140.139 233.934 139.792 234.179 139.344C234.435 138.885 234.563 138.357 234.563 137.76C234.563 137.152 234.435 136.629 234.179 136.192C233.934 135.744 233.592 135.397 233.155 135.152C232.728 134.907 232.243 134.784 231.699 134.784C231.166 134.784 230.68 134.907 230.243 135.152C229.816 135.397 229.475 135.744 229.219 136.192C228.974 136.629 228.851 137.152 228.851 137.76C228.851 138.357 228.974 138.885 229.219 139.344C229.475 139.792 229.816 140.139 230.243 140.384C230.68 140.629 231.166 140.752 231.699 140.752ZM241.869 142.096C241.016 142.096 240.259 141.909 239.597 141.536C238.936 141.163 238.413 140.651 238.029 140C237.645 139.339 237.453 138.592 237.453 137.76C237.453 136.917 237.645 136.171 238.029 135.52C238.413 134.869 238.936 134.363 239.597 134C240.259 133.627 241.016 133.44 241.869 133.44C242.712 133.44 243.464 133.627 244.125 134C244.797 134.363 245.32 134.869 245.693 135.52C246.077 136.16 246.269 136.907 246.269 137.76C246.269 138.603 246.077 139.349 245.693 140C245.32 140.651 244.797 141.163 244.125 141.536C243.464 141.909 242.712 142.096 241.869 142.096ZM241.869 140.752C242.413 140.752 242.899 140.629 243.325 140.384C243.763 140.139 244.104 139.792 244.349 139.344C244.595 138.885 244.717 138.357 244.717 137.76C244.717 137.152 244.595 136.629 244.349 136.192C244.104 135.744 243.763 135.397 243.325 135.152C242.899 134.907 242.413 134.784 241.869 134.784C241.325 134.784 240.84 134.907 240.413 135.152C239.987 135.397 239.645 135.744 239.389 136.192C239.133 136.629 239.005 137.152 239.005 137.76C239.005 138.357 239.133 138.885 239.389 139.344C239.645 139.792 239.987 140.139 240.413 140.384C240.84 140.629 241.325 140.752 241.869 140.752ZM252.69 142V133.52H254.162V135.824L254.018 135.248C254.253 134.661 254.648 134.213 255.202 133.904C255.757 133.595 256.44 133.44 257.25 133.44V134.928C257.186 134.917 257.122 134.912 257.058 134.912C257.005 134.912 256.952 134.912 256.898 134.912C256.077 134.912 255.426 135.157 254.946 135.648C254.466 136.139 254.226 136.848 254.226 137.776V142H252.69ZM262.841 142.096C261.935 142.096 261.135 141.909 260.441 141.536C259.759 141.163 259.225 140.651 258.841 140C258.468 139.349 258.281 138.603 258.281 137.76C258.281 136.917 258.463 136.171 258.825 135.52C259.199 134.869 259.705 134.363 260.345 134C260.996 133.627 261.727 133.44 262.537 133.44C263.359 133.44 264.084 133.621 264.713 133.984C265.343 134.347 265.833 134.859 266.185 135.52C266.548 136.171 266.729 136.933 266.729 137.808C266.729 137.872 266.724 137.947 266.713 138.032C266.713 138.117 266.708 138.197 266.697 138.272H259.481V137.168H265.897L265.273 137.552C265.284 137.008 265.172 136.523 264.937 136.096C264.703 135.669 264.377 135.339 263.961 135.104C263.556 134.859 263.081 134.736 262.537 134.736C262.004 134.736 261.529 134.859 261.113 135.104C260.697 135.339 260.372 135.675 260.137 136.112C259.903 136.539 259.785 137.029 259.785 137.584V137.84C259.785 138.405 259.913 138.912 260.169 139.36C260.436 139.797 260.804 140.139 261.273 140.384C261.743 140.629 262.281 140.752 262.889 140.752C263.391 140.752 263.844 140.667 264.249 140.496C264.665 140.325 265.028 140.069 265.337 139.728L266.185 140.72C265.801 141.168 265.321 141.509 264.745 141.744C264.18 141.979 263.545 142.096 262.841 142.096ZM273.892 142V140.208L273.812 139.872V136.816C273.812 136.165 273.62 135.664 273.236 135.312C272.863 134.949 272.297 134.768 271.54 134.768C271.039 134.768 270.548 134.853 270.068 135.024C269.588 135.184 269.183 135.403 268.852 135.68L268.212 134.528C268.649 134.176 269.172 133.909 269.78 133.728C270.399 133.536 271.044 133.44 271.716 133.44C272.879 133.44 273.775 133.723 274.404 134.288C275.033 134.853 275.348 135.717 275.348 136.88V142H273.892ZM271.108 142.096C270.479 142.096 269.924 141.989 269.444 141.776C268.975 141.563 268.612 141.269 268.356 140.896C268.1 140.512 267.972 140.08 267.972 139.6C267.972 139.141 268.079 138.725 268.292 138.352C268.516 137.979 268.873 137.68 269.364 137.456C269.865 137.232 270.537 137.12 271.38 137.12H274.068V138.224H271.444C270.676 138.224 270.159 138.352 269.892 138.608C269.625 138.864 269.492 139.173 269.492 139.536C269.492 139.952 269.657 140.288 269.988 140.544C270.319 140.789 270.777 140.912 271.364 140.912C271.94 140.912 272.441 140.784 272.868 140.528C273.305 140.272 273.62 139.899 273.812 139.408L274.116 140.464C273.913 140.965 273.556 141.365 273.044 141.664C272.532 141.952 271.887 142.096 271.108 142.096ZM278.19 142V130.128H279.726V142H278.19Z" fill="#C9C9C9"/>
<path d="M136.157 79.216C135.149 79.216 134.183 79.084 133.259 78.82C132.335 78.544 131.591 78.19 131.027 77.758L132.017 75.562C132.557 75.946 133.193 76.264 133.925 76.516C134.669 76.756 135.419 76.876 136.175 76.876C136.751 76.876 137.213 76.822 137.561 76.714C137.921 76.594 138.185 76.432 138.353 76.228C138.521 76.024 138.605 75.79 138.605 75.526C138.605 75.19 138.473 74.926 138.209 74.734C137.945 74.53 137.597 74.368 137.165 74.248C136.733 74.116 136.253 73.996 135.725 73.888C135.209 73.768 134.687 73.624 134.159 73.456C133.643 73.288 133.169 73.072 132.737 72.808C132.305 72.544 131.951 72.196 131.675 71.764C131.411 71.332 131.279 70.78 131.279 70.108C131.279 69.388 131.471 68.734 131.855 68.146C132.251 67.546 132.839 67.072 133.619 66.724C134.411 66.364 135.401 66.184 136.589 66.184C137.381 66.184 138.161 66.28 138.929 66.472C139.697 66.652 140.375 66.928 140.963 67.3L140.063 69.514C139.475 69.178 138.887 68.932 138.299 68.776C137.711 68.608 137.135 68.524 136.571 68.524C136.007 68.524 135.545 68.59 135.185 68.722C134.825 68.854 134.567 69.028 134.411 69.244C134.255 69.448 134.177 69.688 134.177 69.964C134.177 70.288 134.309 70.552 134.573 70.756C134.837 70.948 135.185 71.104 135.617 71.224C136.049 71.344 136.523 71.464 137.039 71.584C137.567 71.704 138.089 71.842 138.605 71.998C139.133 72.154 139.613 72.364 140.045 72.628C140.477 72.892 140.825 73.24 141.089 73.672C141.365 74.104 141.503 74.65 141.503 75.31C141.503 76.018 141.305 76.666 140.909 77.254C140.513 77.842 139.919 78.316 139.127 78.676C138.347 79.036 137.357 79.216 136.157 79.216ZM147.384 79.144C146.58 79.144 145.86 78.988 145.224 78.676C144.6 78.364 144.114 77.89 143.766 77.254C143.418 76.606 143.244 75.784 143.244 74.788V69.316H146.052V74.374C146.052 75.178 146.22 75.772 146.556 76.156C146.904 76.528 147.39 76.714 148.014 76.714C148.446 76.714 148.83 76.624 149.166 76.444C149.502 76.252 149.766 75.964 149.958 75.58C150.15 75.184 150.246 74.692 150.246 74.104V69.316H153.054V79H150.39V76.336L150.876 77.11C150.552 77.782 150.072 78.292 149.436 78.64C148.812 78.976 148.128 79.144 147.384 79.144ZM161.379 79.144C160.563 79.144 159.849 78.964 159.237 78.604C158.625 78.244 158.145 77.698 157.797 76.966C157.461 76.222 157.293 75.286 157.293 74.158C157.293 73.018 157.455 72.082 157.779 71.35C158.103 70.618 158.571 70.072 159.183 69.712C159.795 69.352 160.527 69.172 161.379 69.172C162.291 69.172 163.107 69.382 163.827 69.802C164.559 70.21 165.135 70.786 165.555 71.53C165.987 72.274 166.203 73.15 166.203 74.158C166.203 75.178 165.987 76.06 165.555 76.804C165.135 77.548 164.559 78.124 163.827 78.532C163.107 78.94 162.291 79.144 161.379 79.144ZM155.655 82.492V69.316H158.337V71.296L158.283 74.176L158.463 77.038V82.492H155.655ZM160.893 76.84C161.361 76.84 161.775 76.732 162.135 76.516C162.507 76.3 162.801 75.994 163.017 75.598C163.245 75.19 163.359 74.71 163.359 74.158C163.359 73.594 163.245 73.114 163.017 72.718C162.801 72.322 162.507 72.016 162.135 71.8C161.775 71.584 161.361 71.476 160.893 71.476C160.425 71.476 160.005 71.584 159.633 71.8C159.261 72.016 158.967 72.322 158.751 72.718C158.535 73.114 158.427 73.594 158.427 74.158C158.427 74.71 158.535 75.19 158.751 75.598C158.967 75.994 159.261 76.3 159.633 76.516C160.005 76.732 160.425 76.84 160.893 76.84ZM172.691 79.144C171.659 79.144 170.741 78.928 169.937 78.496C169.145 78.064 168.515 77.476 168.047 76.732C167.591 75.976 167.363 75.118 167.363 74.158C167.363 73.186 167.591 72.328 168.047 71.584C168.515 70.828 169.145 70.24 169.937 69.82C170.741 69.388 171.659 69.172 172.691 69.172C173.711 69.172 174.623 69.388 175.427 69.82C176.231 70.24 176.861 70.822 177.317 71.566C177.773 72.31 178.001 73.174 178.001 74.158C178.001 75.118 177.773 75.976 177.317 76.732C176.861 77.476 176.231 78.064 175.427 78.496C174.623 78.928 173.711 79.144 172.691 79.144ZM172.691 76.84C173.159 76.84 173.579 76.732 173.951 76.516C174.323 76.3 174.617 75.994 174.833 75.598C175.049 75.19 175.157 74.71 175.157 74.158C175.157 73.594 175.049 73.114 174.833 72.718C174.617 72.322 174.323 72.016 173.951 71.8C173.579 71.584 173.159 71.476 172.691 71.476C172.223 71.476 171.803 71.584 171.431 71.8C171.059 72.016 170.759 72.322 170.531 72.718C170.315 73.114 170.207 73.594 170.207 74.158C170.207 74.71 170.315 75.19 170.531 75.598C170.759 75.994 171.059 76.3 171.431 76.516C171.803 76.732 172.223 76.84 172.691 76.84ZM179.878 79V69.316H182.56V72.052L182.182 71.26C182.47 70.576 182.932 70.06 183.568 69.712C184.204 69.352 184.978 69.172 185.89 69.172V71.764C185.77 71.752 185.662 71.746 185.566 71.746C185.47 71.734 185.368 71.728 185.26 71.728C184.492 71.728 183.868 71.95 183.388 72.394C182.92 72.826 182.686 73.504 182.686 74.428V79H179.878ZM191.854 79.144C190.714 79.144 189.826 78.856 189.19 78.28C188.554 77.692 188.236 76.822 188.236 75.67V67.174H191.044V75.634C191.044 76.042 191.152 76.36 191.368 76.588C191.584 76.804 191.878 76.912 192.25 76.912C192.694 76.912 193.072 76.792 193.384 76.552L194.14 78.532C193.852 78.736 193.504 78.892 193.096 79C192.7 79.096 192.286 79.144 191.854 79.144ZM186.742 71.692V69.532H193.456V71.692H186.742ZM200.223 79.144C199.119 79.144 198.147 78.928 197.307 78.496C196.479 78.064 195.837 77.476 195.381 76.732C194.925 75.976 194.697 75.118 194.697 74.158C194.697 73.186 194.919 72.328 195.363 71.584C195.819 70.828 196.437 70.24 197.217 69.82C197.997 69.388 198.879 69.172 199.863 69.172C200.811 69.172 201.663 69.376 202.419 69.784C203.187 70.18 203.793 70.756 204.237 71.512C204.681 72.256 204.903 73.15 204.903 74.194C204.903 74.302 204.897 74.428 204.885 74.572C204.873 74.704 204.861 74.83 204.849 74.95H196.983V73.312H203.373L202.293 73.798C202.293 73.294 202.191 72.856 201.987 72.484C201.783 72.112 201.501 71.824 201.141 71.62C200.781 71.404 200.361 71.296 199.881 71.296C199.401 71.296 198.975 71.404 198.603 71.62C198.243 71.824 197.961 72.118 197.757 72.502C197.553 72.874 197.451 73.318 197.451 73.834V74.266C197.451 74.794 197.565 75.262 197.793 75.67C198.033 76.066 198.363 76.372 198.783 76.588C199.215 76.792 199.719 76.894 200.295 76.894C200.811 76.894 201.261 76.816 201.645 76.66C202.041 76.504 202.401 76.27 202.725 75.958L204.219 77.578C203.775 78.082 203.217 78.472 202.545 78.748C201.873 79.012 201.099 79.144 200.223 79.144Z" fill="white"/>
<path d="M183.938 5.47916L169.354 2.22916C168.461 2.04145 167.539 2.04145 166.646 2.22916L152.063 5.47916C150.674 5.78743 149.431 6.56037 148.541 7.67026C147.651 8.78015 147.166 10.1606 147.167 11.5833V20.0625C147.14 25.9757 148.903 31.7585 152.223 36.6515C155.544 41.5446 160.266 45.319 165.771 47.4792C166.478 47.7697 167.235 47.9183 168 47.9167C168.762 47.9149 169.518 47.7737 170.229 47.5C175.732 45.3313 180.452 41.5519 183.771 36.6563C187.091 31.7608 188.855 25.9772 188.833 20.0625V11.5833C188.834 10.1606 188.349 8.78015 187.459 7.67026C186.569 6.56037 185.326 5.78743 183.938 5.47916ZM177.896 20.3333L167.875 30.1875C167.485 30.5755 166.957 30.7933 166.406 30.7933C165.856 30.7933 165.328 30.5755 164.938 30.1875L160.188 25.5208C159.992 25.3272 159.837 25.0967 159.731 24.8429C159.626 24.589 159.571 24.3167 159.571 24.0417C159.571 23.7666 159.626 23.4943 159.731 23.2405C159.837 22.9866 159.992 22.7562 160.188 22.5625C160.578 22.1745 161.106 21.9567 161.656 21.9567C162.207 21.9567 162.735 22.1745 163.125 22.5625L166.417 25.7917L174.979 17.4583C175.175 17.2654 175.406 17.113 175.661 17.0096C175.916 16.9063 176.188 16.8541 176.463 16.8561C176.737 16.858 177.009 16.914 177.262 17.0209C177.515 17.1278 177.745 17.2835 177.938 17.4792C178.13 17.6748 178.283 17.9065 178.386 18.161C178.49 18.4155 178.542 18.6879 178.54 18.9626C178.538 19.2373 178.482 19.509 178.375 19.762C178.268 20.0151 178.112 20.2446 177.917 20.4375L177.896 20.3333Z" fill="#00B9FC"/>
</svg>
