<svg width="42" height="46" viewBox="0 0 42 46" fill="none" xmlns="http://www.w3.org/2000/svg">
<path d="M36.9375 3.47916L22.3542 0.229158C21.4611 0.0414527 20.5389 0.0414527 19.6458 0.229158L5.0625 3.47916C3.67353 3.78743 2.4313 4.56037 1.54111 5.67026C0.650929 6.78015 0.166071 8.16055 0.16667 9.58333V18.0625C0.140439 23.9757 1.90322 29.7585 5.2235 34.6515C8.54378 39.5446 13.2663 43.319 18.7708 45.4792C19.478 45.7697 20.2355 45.9183 21 45.9167C21.7622 45.9149 22.5177 45.7737 23.2292 45.5C28.732 43.3313 33.452 39.5519 36.7715 34.6563C40.0909 29.7608 41.8551 23.9772 41.8333 18.0625V9.58333C41.8339 8.16055 41.3491 6.78015 40.4589 5.67026C39.5687 4.56037 38.3265 3.78743 36.9375 3.47916ZM30.8958 18.3333L20.875 28.1875C20.4847 28.5755 19.9566 28.7933 19.4063 28.7933C18.8559 28.7933 18.3278 28.5755 17.9375 28.1875L13.1875 23.5208C12.9922 23.3272 12.8372 23.0967 12.7315 22.8429C12.6257 22.589 12.5713 22.3167 12.5713 22.0417C12.5713 21.7666 12.6257 21.4943 12.7315 21.2405C12.8372 20.9866 12.9922 20.7562 13.1875 20.5625C13.5778 20.1745 14.1059 19.9567 14.6563 19.9567C15.2066 19.9567 15.7347 20.1745 16.125 20.5625L19.4167 23.7917L27.9792 15.4583C28.1748 15.2654 28.4065 15.113 28.661 15.0096C28.9155 14.9063 29.1879 14.8541 29.4627 14.8561C29.7374 14.858 30.009 14.914 30.262 15.0209C30.5151 15.1278 30.7446 15.2835 30.9375 15.4792C31.1304 15.6748 31.2828 15.9065 31.3862 16.161C31.4895 16.4155 31.5417 16.6879 31.5398 16.9626C31.5378 17.2373 31.4818 17.509 31.3749 17.762C31.268 18.0151 31.1123 18.2446 30.9167 18.4375L30.8958 18.3333Z" fill="#00B9FC"/>
</svg>
